<svg width="691px" height="537px" viewBox="0 0 691 537" version="1.1" xmlns="http://www.w3.org/2000/svg" xmlns:xlink="http://www.w3.org/1999/xlink"><g id="Page-1" stroke="none" stroke-width="1" fill="none" fill-rule="evenodd"><g id="104-dumbbell-441147b9bb2b15825320948afe1a618f"><path d="M229.7,533.3 C106.8,533.2 22.4,351.1 19.4,342.1 C9.7,313.2 -20.7,223.3 24.8,134.8 C81,25.7 221.8,-21 313.4,10.3 C375.7,31.5 367,72.3 446.9,110.8 C544.5,157.7 600.3,117.6 649.1,161.7 C700.2,207.8 699.9,306.9 673.3,372.6 C637,462.2 597.1,515.8 508.2,533.4 C433.6,533.5 331.5,533.4 229.7,533.3 Z" id="XMLID_52_" fill="#FFF4B0"></path><path d="M102.9,533.5 L582.8,533.5" id="XMLID_51_" stroke="#4E5A7D" stroke-width="6" stroke-linecap="round" stroke-linejoin="round"></path><path d="M609.9,533.5 L659.3,533.5" id="XMLID_50_" stroke="#4E5A7D" stroke-width="6" stroke-linecap="round" stroke-linejoin="round"></path><path d="M48.4,533.5 L83,533.5" id="XMLID_49_" stroke="#4E5A7D" stroke-width="6" stroke-linecap="round" stroke-linejoin="round"></path><path d="M676.7,533.5 L685.2,533.5" id="XMLID_48_" stroke="#4E5A7D" stroke-width="6" stroke-linecap="round" stroke-linejoin="round"></path><g id="XMLID_40_" opacity="0.2" transform="translate(237.000000, 274.000000)" stroke="#592D2D" stroke-linecap="round" stroke-linejoin="round" stroke-width="6"><polyline id="XMLID_47_" points="83.1 0.9 83.1 31.8 21.3 31.8"></polyline><polyline id="XMLID_46_" points="145 31.8 83.1 31.8 83.1 0.9"></polyline><rect id="XMLID_45_" x="52.2" y="31.8" width="61.9" height="30.9"></rect><polyline id="XMLID_44_" points="100.7 93.6 83.1 93.6 83.1 62.7 145 62.7"></polyline><polyline id="XMLID_43_" points="21.3 62.7 83.1 62.7 83.1 93.6 33 93.6"></polyline><polyline id="XMLID_42_" points="0.2 31.8 52.2 31.8 52.2 62.7 21.3 62.7"></polyline><polyline id="XMLID_41_" points="158.7 62.7 114 62.7 114 31.8 135.5 31.8"></polyline></g><ellipse id="XMLID_39_" stroke="#4E5A7D" stroke-width="6" stroke-linecap="round" stroke-linejoin="round" cx="194.9" cy="448.9" rx="24" ry="44.3"></ellipse><path d="M164.1,459.1 L150.4,459.1 C144.3,459.1 139.4,454.2 139.4,448.1 L139.4,444.6 C139.4,438.5 144.3,433.6 150.4,433.6 L164.1,433.6 L164.1,459.1 Z" id="XMLID_38_" fill="#FFFFFF"></path><path d="M164.1,459.1 L150.4,459.1 C144.3,459.1 139.4,454.2 139.4,448.1 L139.4,444.6 C139.4,438.5 144.3,433.6 150.4,433.6 L164.1,433.6 L164.1,459.1 Z" id="XMLID_37_" stroke="#4E5A7D" stroke-width="6" stroke-linecap="round" stroke-linejoin="round"></path><path d="M187.7,407.4 L168.6,407.4 C159.3,407.4 151.8,424.8 151.8,446.4 C151.8,467.9 159.3,485.4 168.6,485.4 C168.9,485.4 169.3,485.4 169.6,485.3 L187.7,485.3 L187.7,407.4 Z" id="XMLID_36_" fill="#D16F6F"></path><path d="M187.7,407.4 L168.6,407.4 C159.3,407.4 151.8,424.8 151.8,446.4 C151.8,467.9 159.3,485.4 168.6,485.4 C168.9,485.4 169.3,485.4 169.6,485.3 L187.7,485.3 L187.7,407.4 Z" id="XMLID_35_" stroke="#4E5A7D" stroke-width="6" stroke-linecap="round" stroke-linejoin="round"></path><path d="M269.2,359.3 L215.6,359.3 C189.6,359.3 168.5,398.3 168.5,446.4 C168.5,494.5 189.6,533.5 215.6,533.5 C216.5,533.5 217.5,533.4 218.4,533.3 L269.2,533.3 L269.2,359.3 Z" id="XMLID_34_" fill="#E08484"></path><path d="M269.2,359.3 L215.6,359.3 C189.6,359.3 168.5,398.3 168.5,446.4 C168.5,494.5 189.6,533.5 215.6,533.5 C216.5,533.5 217.5,533.4 218.4,533.3 L269.2,533.3 L269.2,359.3 Z" id="XMLID_33_" fill="#E08484"></path><path d="M269.2,359.3 L215.6,359.3 C189.6,359.3 168.5,398.3 168.5,446.4 C168.5,494.5 189.6,533.5 215.6,533.5 C216.5,533.5 217.5,533.4 218.4,533.3 L269.2,533.3 L269.2,359.3 Z" id="XMLID_32_" fill="#E08484"></path><path d="M185.9,513.9 C194,526.1 204.4,533.4 215.6,533.4 C216.5,533.4 217.5,533.3 218.4,533.2 L269.2,533.2 L269.2,513.9 L185.9,513.9 Z" id="XMLID_31_" fill="#D87171"></path><path d="M185.4,379.5 L269.2,379.5 L269.2,359.2 L215.6,359.2 C204.1,359.3 193.5,366.9 185.4,379.5 Z" id="XMLID_30_" fill="#E99697"></path><path d="M269.2,359.3 L215.6,359.3 C189.6,359.3 168.5,398.3 168.5,446.4 C168.5,494.5 189.6,533.5 215.6,533.5 C216.5,533.5 217.5,533.4 218.4,533.3 L269.2,533.3 L269.2,359.3 Z" id="XMLID_29_" stroke="#4E5A7D" stroke-width="6" stroke-linecap="round" stroke-linejoin="round"></path><ellipse id="XMLID_28_" fill="#D87171" cx="270.6" cy="446.4" rx="47.1" ry="87.1"></ellipse><ellipse id="XMLID_27_" stroke="#4E5A7D" stroke-width="6" stroke-linecap="round" stroke-linejoin="round" cx="270.6" cy="446.4" rx="47.1" ry="87.1"></ellipse><ellipse id="XMLID_26_" fill="#4E5A7D" cx="270.6" cy="446.4" rx="9.2" ry="20.4"></ellipse><ellipse id="XMLID_25_" fill="#C46565" cx="270.6" cy="446.4" rx="33.1" ry="70.4"></ellipse><ellipse id="XMLID_24_" fill="#D16F6F" cx="270.6" cy="446.4" rx="17.2" ry="33.1"></ellipse><ellipse id="XMLID_23_" stroke="#4E5A7D" stroke-width="4" stroke-linecap="round" stroke-linejoin="round" cx="270.6" cy="446.4" rx="17.2" ry="33.1"></ellipse><ellipse id="XMLID_22_" stroke="#4E5A7D" stroke-width="6" stroke-linecap="round" stroke-linejoin="round" cx="270.6" cy="446.4" rx="9.2" ry="20.4"></ellipse><ellipse id="XMLID_21_" fill="#4E5A7D" cx="270.6" cy="446.4" rx="9.2" ry="20.4"></ellipse><ellipse id="XMLID_20_" stroke="#4E5A7D" stroke-width="4" stroke-linecap="round" stroke-linejoin="round" cx="270.6" cy="446.4" rx="33.1" ry="70.4"></ellipse><path d="M269.1,433.7 C267.8,437.1 266.9,441.5 266.9,446.3 C266.9,451.2 267.8,455.5 269.1,458.9 C269.7,459 270.3,459.1 270.9,459.1 L444.9,459.1 L444.9,433.5 L270.9,433.5 C270.2,433.6 269.7,433.6 269.1,433.7 Z" id="XMLID_19_" fill="#FFFFFF"></path><path d="M269.1,433.7 C267.8,437.1 266.9,441.5 266.9,446.3 C266.9,451.2 267.8,455.5 269.1,458.9 C269.7,459 270.3,459.1 270.9,459.1 L444.9,459.1 L444.9,433.5 L270.9,433.5 C270.2,433.6 269.7,433.6 269.1,433.7 Z" id="XMLID_18_" stroke="#4E5A7D" stroke-width="6" stroke-linecap="round" stroke-linejoin="round"></path><path d="M516,359.3 L462.4,359.3 C436.4,359.3 415.3,398.3 415.3,446.4 C415.3,494.5 436.4,533.5 462.4,533.5 C463.3,533.5 464.3,533.4 465.2,533.3 L516,533.3 L516,359.3 Z" id="XMLID_17_" fill="#E08484"></path><path d="M434.2,513.9 C442.3,526.1 452.7,533.4 463.9,533.4 C464.8,533.4 465.8,533.3 466.7,533.2 L517.5,533.2 L517.5,513.9 L434.2,513.9 Z" id="XMLID_16_" fill="#D87171"></path><path d="M433.6,379.5 L517.4,379.5 L517.4,359.2 L463.8,359.2 C452.4,359.3 441.8,366.9 433.6,379.5 Z" id="XMLID_15_" fill="#E99697"></path><path d="M516,359.3 L462.4,359.3 C436.4,359.3 415.3,398.3 415.3,446.4 C415.3,494.5 436.4,533.5 462.4,533.5 C463.3,533.5 464.3,533.4 465.2,533.3 L516,533.3 L516,359.3 Z" id="XMLID_14_" stroke="#4E5A7D" stroke-width="6" stroke-linecap="round" stroke-linejoin="round"></path><ellipse id="XMLID_13_" fill="#E08484" cx="517.5" cy="446.4" rx="47.1" ry="87.1"></ellipse><ellipse id="XMLID_12_" fill="#D87171" cx="517.5" cy="446.4" rx="47.1" ry="87.1"></ellipse><ellipse id="XMLID_11_" stroke="#4E5A7D" stroke-width="6" stroke-linecap="round" stroke-linejoin="round" cx="517.5" cy="446.4" rx="47.1" ry="87.1"></ellipse><ellipse id="XMLID_10_" fill="#4E5A7D" cx="517.5" cy="446.4" rx="9.2" ry="20.4"></ellipse><ellipse id="XMLID_9_" fill="#C46565" cx="517.5" cy="446.4" rx="33.1" ry="73.1"></ellipse><ellipse id="XMLID_8_" stroke="#4E5A7D" stroke-width="4" stroke-linecap="round" stroke-linejoin="round" cx="517.5" cy="446.4" rx="33.1" ry="73.1"></ellipse><path d="M549.6,412.6 L527.6,412.6 C516.9,412.6 508.2,428.4 508.2,447.9 C508.2,467.4 516.9,483.2 527.6,483.2 C528,483.2 528.4,483.2 528.8,483.1 L549.7,483.1 L549.7,412.6 L549.6,412.6 Z" id="XMLID_7_" fill="#E08484"></path><path d="M547.2,412.6 L527,412.6 C517.2,412.6 509.2,428.4 509.2,447.9 C509.2,467.4 517.2,483.2 527,483.2 C527.4,483.2 527.7,483.2 528.1,483.1 L547.3,483.1 L547.3,412.6 L547.2,412.6 Z" id="XMLID_6_" stroke="#4E5A7D" stroke-width="6" stroke-linecap="round" stroke-linejoin="round"></path><ellipse id="XMLID_5_" fill="#E08484" cx="547.7" cy="447.9" rx="16.9" ry="35.3"></ellipse><ellipse id="XMLID_4_" stroke="#4E5A7D" stroke-width="6" stroke-linecap="round" stroke-linejoin="round" cx="546.8" cy="447.9" rx="17.8" ry="35.3"></ellipse><path d="M556.7,460.7 C562.8,460.7 567.7,455.8 567.7,449.7 L567.7,446.2 C567.7,440.1 562.8,435.2 556.7,435.2 C551.1,435.2 546.6,439.7 546.6,445.3 L546.6,450.7 C546.6,456.2 551.1,460.7 556.7,460.7 Z" id="XMLID_3_" fill="#FFFFFF"></path><path d="M556.7,460.7 C562.8,460.7 567.7,455.8 567.7,449.7 L567.7,446.2 C567.7,440.1 562.8,435.2 556.7,435.2 C551.1,435.2 546.6,439.7 546.6,445.3 L546.6,450.7 C546.6,456.2 551.1,460.7 556.7,460.7 Z" id="XMLID_2_" stroke="#4E5A7D" stroke-width="6" stroke-linecap="round" stroke-linejoin="round"></path><path d="M270.1,388.9 L266.3,388.9 L266.3,394.8 L269.1,394.8 L268.9,394.8 C271.1,394.8 272.8,397 272.8,399.7 C272.8,402.4 271,404.6 268.9,404.6 C267.3,404.6 266,403.5 265.4,401.8" id="XMLID_1_" stroke="#4E5A7D" stroke-width="2" stroke-linecap="round" stroke-linejoin="round"></path></g></g></svg>