<svg width="659px" height="510px" viewBox="0 0 659 510" version="1.1" xmlns="http://www.w3.org/2000/svg" xmlns:xlink="http://www.w3.org/1999/xlink"><g id="Page-1" stroke="none" stroke-width="1" fill="none" fill-rule="evenodd"><g id="day55-living-room-interior-5be9f9e04e5ce13751f827b1a0a2d1a2" transform="translate(5.000000, 3.000000)"><polyline id="XMLID_177_" stroke="#8DC6BF" stroke-width="6" stroke-linecap="round" stroke-linejoin="round" points="500.2 64.2 552.3 64.2 552.3 95.1 521.3 95.1"></polyline><rect id="XMLID_89_" fill="#6DA580" x="67.5" y="300" width="54" height="22"></rect><rect id="XMLID_116_" stroke="#313031" stroke-width="10" stroke-linecap="round" stroke-linejoin="round" x="67.5" y="300" width="54" height="22"></rect><circle id="XMLID_104_" fill="#0BC6D5" cx="216.6" cy="320.5" r="40"></circle><path d="M201.9,320.5 C201.9,302.8 213.4,287.9 229.2,282.6 C225.2,281.3 221,280.5 216.5,280.5 C194.4,280.5 176.5,298.4 176.5,320.5 C176.5,342.6 194.4,360.5 216.5,360.5 C220.9,360.5 225.2,359.8 229.2,358.4 C213.4,353.1 201.9,338.2 201.9,320.5 Z" id="XMLID_158_" fill="#0BC6D5" opacity="0.74"></path><circle id="XMLID_112_" stroke="#313031" stroke-width="10" stroke-linecap="round" stroke-linejoin="round" cx="216.6" cy="320.5" r="40"></circle><path d="M216.6,275.2 L216.6,189" id="XMLID_111_" stroke="#313031" stroke-width="14" stroke-linecap="round" stroke-linejoin="round"></path><polygon id="XMLID_110_" stroke="#313031" stroke-width="10" stroke-linecap="round" stroke-linejoin="round" points="280.2 212.8 153.1 212.8 171.2 122 262 122"></polygon><polygon id="XMLID_103_" fill="#F0F4F7" points="280.2 212.8 153.1 212.8 171.2 122 262 122"></polygon><polygon id="XMLID_154_" fill="#DBDBDB" points="171.2 122 153.1 212.8 199.2 212.8 209.3 122"></polygon><polygon id="XMLID_107_" stroke="#313031" stroke-width="10" stroke-linecap="round" stroke-linejoin="round" points="280.2 212.8 153.1 212.8 171.2 122 262 122"></polygon><path d="M246.8,212.8 L246.8,237.7" id="XMLID_106_" stroke="#313031" stroke-width="4" stroke-linecap="round" stroke-linejoin="round"></path><circle id="XMLID_105_" stroke="#313031" stroke-width="4" stroke-linecap="round" stroke-linejoin="round" cx="246.8" cy="245.5" r="7.9"></circle><circle id="XMLID_108_" fill="#313031" cx="246.8" cy="245.5" r="7.9"></circle><rect id="XMLID_98_" stroke="#313031" stroke-width="10" stroke-linecap="round" stroke-linejoin="round" x="52.2" y="482" width="32" height="20"></rect><rect id="XMLID_93_" fill="#313031" x="52.2" y="482" width="32" height="20"></rect><rect id="XMLID_96_" stroke="#313031" stroke-width="10" stroke-linecap="round" stroke-linejoin="round" x="215.2" y="482" width="32" height="20"></rect><rect id="XMLID_100_" fill="#313031" x="215.2" y="482" width="32" height="20"></rect><path d="M381.2,394 L381.2,263 C381.2,234.3 404.5,211 433.2,211 L527.5,211 C556.2,211 579.5,234.3 579.5,263 L579.5,394 L381.2,394 Z" id="XMLID_74_" fill="#FFC857"></path><path d="M527.5,212 L433.2,212 C404.5,212 381.2,235.3 381.2,264 L381.2,276.2 C381.2,247.5 404.5,224.2 433.2,224.2 L527.5,224.2 C556.2,224.2 579.5,247.5 579.5,276.2 L579.5,264 C579.5,235.3 556.2,212 527.5,212 Z" id="XMLID_97_" fill="#FFC857" opacity="0.6"></path><path d="M381.2,394 L381.2,263 C381.2,234.3 404.5,211 433.2,211 L527.5,211 C556.2,211 579.5,234.3 579.5,263 L579.5,394 L381.2,394 Z" id="XMLID_94_" stroke="#313031" stroke-width="10" stroke-linecap="round" stroke-linejoin="round"></path><rect id="XMLID_87_" fill="#7C4F49" x="28.2" y="402" width="244" height="80"></rect><rect id="XMLID_102_" stroke="#7C4F49" stroke-width="10" opacity="0.24" stroke-linecap="round" stroke-linejoin="round" x="117.2" y="442" width="59.4" height="9.2"></rect><rect id="XMLID_125_" fill="#7C4F49" opacity="0.54" x="28.2" y="402.6" width="244" height="9.7"></rect><rect id="XMLID_130_" fill="#7C4F49" opacity="0.24" x="28.2" y="472.2" width="244" height="9.7"></rect><rect id="XMLID_91_" stroke="#313031" stroke-width="10" stroke-linecap="round" stroke-linejoin="round" x="28.2" y="402" width="244" height="80"></rect><rect id="XMLID_75_" fill="#7C4F49" x="28.2" y="322" width="244" height="80"></rect><rect id="XMLID_138_" stroke="#7C4F49" stroke-width="10" opacity="0.24" stroke-linecap="round" stroke-linejoin="round" x="117.2" y="362" width="59.4" height="9.2"></rect><rect id="XMLID_132_" fill="#7C4F49" opacity="0.24" x="28.2" y="392" width="244" height="9.7"></rect><rect id="XMLID_42_" fill="#7C4F49" opacity="0.54" x="28.2" y="322" width="244" height="9.7"></rect><rect id="XMLID_90_" stroke="#313031" stroke-width="10" stroke-linecap="round" stroke-linejoin="round" x="28.2" y="322" width="244" height="80"></rect><path d="M624.3,482.6 L570.3,482.6 L570.3,338.6 C570.3,329.8 577.5,322.6 586.3,322.6 L608.3,322.6 C617.1,322.6 624.3,329.8 624.3,338.6 L624.3,482.6 Z" id="XMLID_73_" fill="#FFC857"></path><path d="M608.3,322 L586.3,322 C577.5,322 570.3,329.2 570.3,338 L570.3,348 C570.3,339.2 577.5,332 586.3,332 L608.3,332 C617.1,332 624.3,339.2 624.3,348 L624.3,338 C624.3,329.2 617.2,322 608.3,322 Z" id="XMLID_95_" fill="#FFC857" opacity="0.6"></path><path d="M624.3,482 L570.3,482 L570.3,338 C570.3,329.2 577.5,322 586.3,322 L608.3,322 C617.1,322 624.3,329.2 624.3,338 L624.3,482 Z" id="XMLID_88_" stroke="#313031" stroke-width="10" stroke-linecap="round" stroke-linejoin="round"></path><rect id="XMLID_109_" fill="#FFFFFF" transform="translate(475.627700, 95.566700) rotate(90.000000) translate(-475.627700, -95.566700) " x="415.6277" y="13.5667" width="120" height="164"></rect><rect id="XMLID_86_" stroke="#313031" stroke-width="10" stroke-linecap="round" stroke-linejoin="round" transform="translate(475.627700, 95.566700) rotate(90.000000) translate(-475.627700, -95.566700) " x="415.6277" y="13.5667" width="120" height="164"></rect><rect id="XMLID_153_" fill="#C6C6C6" x="409.6" y="51.6" width="132" height="88"></rect><rect id="XMLID_84_" stroke="#313031" stroke-width="6" stroke-linecap="round" stroke-linejoin="round" x="409.6" y="51.6" width="132" height="88"></rect><polygon id="XMLID_123_" fill="#313031" points="433.4 122 454.3 85.7 475.3 122"></polygon><polygon id="XMLID_83_" stroke="#313031" stroke-width="4" stroke-linecap="round" stroke-linejoin="round" points="433.4 122 454.3 85.7 475.3 122"></polygon><polygon id="XMLID_114_" fill="#0BC6D5" points="454.3 122 478.7 79.7 503.1 122"></polygon><polygon id="XMLID_82_" stroke="#313031" stroke-width="4" stroke-linecap="round" stroke-linejoin="round" points="454.3 122 478.7 79.7 503.1 122"></polygon><circle id="XMLID_126_" fill="#FFC857" cx="512.5" cy="76.3" r="9.3"></circle><circle id="XMLID_81_" stroke="#313031" stroke-width="4" stroke-linecap="round" stroke-linejoin="round" cx="512.5" cy="76.3" r="9.3"></circle><polyline id="XMLID_80_" stroke="#313031" stroke-width="6" stroke-linecap="round" stroke-linejoin="round" points="422.5 35.6 474.5 0 526.5 35.6"></polyline><path d="M176.6,362 L117.2,362" id="XMLID_79_" stroke="#313031" stroke-width="10" stroke-linecap="round" stroke-linejoin="round"></path><path d="M117.2,442 L176.6,442" id="XMLID_78_" stroke="#313031" stroke-width="10" stroke-linecap="round" stroke-linejoin="round"></path><rect id="XMLID_92_" fill="#313031" x="570.3" y="482" width="32" height="20"></rect><rect id="XMLID_76_" stroke="#313031" stroke-width="10" stroke-linecap="round" stroke-linejoin="round" x="570.3" y="482" width="32" height="20"></rect><rect id="XMLID_62_" fill="#313031" x="358.1" y="482" width="32" height="20"></rect><rect id="XMLID_72_" stroke="#313031" stroke-width="10" stroke-linecap="round" stroke-linejoin="round" x="358.1" y="482" width="32" height="20"></rect><path d="M390.1,482 L336.1,482 L336.1,338 C336.1,329.2 343.3,322 352.1,322 L374.1,322 C382.9,322 390.1,329.2 390.1,338 L390.1,482 Z" id="XMLID_71_" fill="#FFC857"></path><path d="M374.1,322 L352.1,322 C343.3,322 336.1,329.2 336.1,338 L336.1,348 C336.1,339.2 343.3,332 352.1,332 L374.1,332 C382.9,332 390.1,339.2 390.1,348 L390.1,338 C390.1,329.2 382.9,322 374.1,322 Z" id="XMLID_101_" fill="#FFC857" opacity="0.6"></path><path d="M390.1,482 L336.1,482 L336.1,338 C336.1,329.2 343.3,322 352.1,322 L374.1,322 C382.9,322 390.1,329.2 390.1,338 L390.1,482 Z" id="XMLID_70_" stroke="#313031" stroke-width="10" stroke-linecap="round" stroke-linejoin="round"></path><path d="M390.3,439 L390.3,390.6 C390.3,380.3 398.6,372 408.9,372 L551.7,372 C562,372 570.3,380.3 570.3,390.6 L570.3,439 L390.3,439 Z" id="XMLID_69_" fill="#FFC857"></path><path d="M551.7,372 L408.9,372 C398.6,372 390.3,380.3 390.3,390.6 L390.3,402.6 C390.3,392.3 398.6,384 408.9,384 L551.7,384 C562,384 570.3,392.3 570.3,402.6 L570.3,390.6 C570.3,380.3 562,372 551.7,372 Z" id="XMLID_99_" fill="#FFC857" opacity="0.6"></path><path d="M390.3,439 L390.3,390.6 C390.3,380.3 398.6,372 408.9,372 L551.7,372 C562,372 570.3,380.3 570.3,390.6 L570.3,439 L390.3,439 Z" id="XMLID_65_" stroke="#313031" stroke-width="10" stroke-linecap="round" stroke-linejoin="round"></path><rect id="XMLID_68_" fill="#FFC857" transform="translate(480.333300, 457.966700) rotate(90.000000) translate(-480.333300, -457.966700) " x="461.3333" y="367.9667" width="38" height="180"></rect><rect id="XMLID_77_" fill="#FFC857" transform="translate(480.333300, 457.966700) rotate(90.000000) translate(-480.333300, -457.966700) " x="461.3333" y="367.9667" width="38" height="180"></rect><rect id="XMLID_85_" fill="#D89E36" transform="translate(480.333300, 444.966700) rotate(90.000000) translate(-480.333300, -444.966700) " x="474.3333" y="354.9667" width="12" height="180"></rect><rect id="XMLID_64_" stroke="#313031" stroke-width="10" stroke-linecap="round" stroke-linejoin="round" transform="translate(480.333300, 457.966700) rotate(90.000000) translate(-480.333300, -457.966700) " x="461.3333" y="367.9667" width="38" height="180"></rect><circle id="XMLID_136_" fill="#FFFFFF" opacity="0.69" cx="480.7" cy="291.5" r="11"></circle><circle id="XMLID_128_" stroke="#313031" stroke-width="6" stroke-linecap="round" stroke-linejoin="round" cx="480.7" cy="291.5" r="11"></circle><path d="M0.5,502 L648.1,502" id="XMLID_2_" stroke="#313031" stroke-width="10" stroke-linecap="round" stroke-linejoin="round"></path><ellipse id="XMLID_115_" fill="#DBDBDB" cx="248.9" cy="241.4" rx="2" ry="1.8"></ellipse></g></g></svg>