<svg xmlns="http://www.w3.org/2000/svg" width="30" height="29" fill-rule="evenodd"><path d="M15.094 8.07a1.22 1.22 0 0 1-.862-.357L8.774 2.255a1.22 1.22 0 0 1 0-1.723 1.22 1.22 0 0 1 1.724 0l4.597 4.597L19.7.53a1.22 1.22 0 0 1 1.724 0 1.22 1.22 0 0 1 0 1.724l-5.458 5.46c-.238.238-.55.357-.862.357z" fill="#79302a"/><circle fill="#662621" cx="15.094" cy="6.469" r="4.466"/><path d="M15.094 2.003l-.062.002v8.93l.062.002a4.466 4.466 0 0 0 0-8.932z" fill="#541b18"/><path d="M29.756 26.465l-2.977-3.97a1.22 1.22 0 0 0-.975-.488H22.64c.413-1.303.64-2.736.64-4.24a14.08 14.08 0 0 0-.641-4.24h3.163a1.22 1.22 0 0 0 .975-.488l2.977-3.97a1.22 1.22 0 0 0-.244-1.706 1.22 1.22 0 0 0-1.706.244l-2.612 3.482H21.57c-1.498-2.578-3.84-4.24-6.475-4.24s-4.978 1.662-6.475 4.24H4.993L2.38 7.61a1.22 1.22 0 0 0-1.706-.244A1.22 1.22 0 0 0 .43 9.072l2.977 3.97a1.22 1.22 0 0 0 .975.488h3.163a14.08 14.08 0 0 0-.641 4.24c0 1.504.228 2.936.64 4.24h-3.16a1.22 1.22 0 0 0-.975.488L.43 26.465a1.22 1.22 0 0 0 .244 1.706 1.218 1.218 0 0 0 1.706-.244l2.612-3.482H8.62c1.262 2.173 3.125 3.7 5.257 4.115V12.375a1.22 1.22 0 0 1 1.219-1.219 1.22 1.22 0 0 1 1.219 1.219V28.56c2.13-.425 3.995-1.942 5.257-4.115h3.625l2.612 3.482a1.215 1.215 0 0 0 1.706.244 1.22 1.22 0 0 0 .243-1.706z" fill="#79302a"/><path d="M29.756 26.465l-2.977-3.97a1.22 1.22 0 0 0-.975-.488H22.64c.413-1.303.64-2.736.64-4.24a14.08 14.08 0 0 0-.641-4.24h3.163a1.22 1.22 0 0 0 .975-.488l2.977-3.97a1.22 1.22 0 0 0-.244-1.706 1.22 1.22 0 0 0-1.706.244l-2.612 3.482H21.57c-1.498-2.578-3.84-4.24-6.475-4.24l-.062.002v4.306l.062-.003a1.22 1.22 0 0 1 1.219 1.219V28.56c2.13-.425 3.994-1.942 5.257-4.115h3.625l2.612 3.482a1.215 1.215 0 0 0 1.706.244 1.22 1.22 0 0 0 .244-1.706z" fill="#662621"/></svg>