<svg xmlns="http://www.w3.org/2000/svg" width="30" height="31" fill-rule="evenodd"><path d="M24.857.497A6.187 6.187 0 0 0 18.59 2.01c-1.983 1.983-2.332 4.986-1.056 7.332L1.366 25.51a1.75 1.75 0 0 0 0 2.473 1.75 1.75 0 0 0 2.473 0l16.167-16.167c2.347 1.276 5.35.927 7.332-1.056a6.193 6.193 0 0 0 1.513-6.268l-2.765 2.765a2.824 2.824 0 1 1-3.994-3.995L24.857.497z" fill="#324a5e"/><path d="M28.85 4.49l-2.765 2.765a2.824 2.824 0 0 1-3.994 0l-.09-.098L1.277 27.884l.09.098a1.75 1.75 0 0 0 2.473 0l16.167-16.167c2.347 1.276 5.35.927 7.332-1.056a6.193 6.193 0 0 0 1.513-6.268z" fill="#2b3b4e"/><path fill="#c0c9d1" d="M6.134 2.693L1.19.107.01 1.286 2.596 6.23 6.02 7.258 18.78 20.02l1.14-1.14L7.16 6.117z"/><path fill="#fff" d="M19.923 18.88L7.16 6.117 6.134 2.693 1.19.107l-.62.62L19.32 19.48z"/><path d="M29.54 27.02l-2.616 2.616a1.54 1.54 0 0 1-2.18 0l-7.412-7.412a1.54 1.54 0 0 1 0-2.18l2.616-2.616a1.54 1.54 0 0 1 2.18 0l7.412 7.412a1.54 1.54 0 0 1 0 2.18z" fill="#f9b54c"/><path d="M29.54 24.84l-7.412-7.412a1.54 1.54 0 0 0-2.18 0l-1.34 1.34L28.2 28.36l1.34-1.34a1.54 1.54 0 0 0 0-2.18z" fill="#ffd15d"/><path fill="#f4a200" d="M21.668 16.63l-5.135 5.135-1.6-1.6 5.135-5.135z"/><path fill="#f9b54c" d="M19.07 19.228l-1.6-1.6 2.6-2.6 1.6 1.6z"/></svg>