<svg xmlns="http://www.w3.org/2000/svg" width="30" height="27" fill-rule="evenodd"><path d="M.506 22.424l12.125-21a2.74 2.74 0 0 1 4.737 0l12.125 21a2.74 2.74 0 0 1-2.369 4.103H2.875a2.74 2.74 0 0 1-2.369-4.103z" fill="#e67e22"/><path d="M29.494 22.424l-12.125-21A2.71 2.71 0 0 0 15 .056v26.47h12.125a2.74 2.74 0 0 0 2.369-4.103z" fill="#d1691c"/><path d="M15 18.168a1.22 1.22 0 0 0 1.219-1.219V7.195A1.22 1.22 0 0 0 15 5.976a1.22 1.22 0 0 0-1.219 1.219v9.754A1.22 1.22 0 0 0 15 18.168zm0 4.877a1.22 1.22 0 0 0 1.219-1.219A1.22 1.22 0 0 0 15 20.607a1.22 1.22 0 0 0-1.219 1.219A1.22 1.22 0 0 0 15 23.045z" fill="#fff"/><path d="M15 5.976v12.192a1.22 1.22 0 0 0 1.219-1.219V7.195A1.22 1.22 0 0 0 15 5.976zm0 14.63v2.438a1.22 1.22 0 0 0 1.219-1.219A1.22 1.22 0 0 0 15 20.607z" fill="#e3e5e4"/></svg>