<svg xmlns="http://www.w3.org/2000/svg" width="30" height="44" fill-rule="evenodd"><path d="M24.288 36.97L15 43.776 5.712 36.97c-3.532-2.588-5.6-6.65-5.6-10.964V3.74L15 .102l14.898 3.64v22.263c0 4.314-2.078 8.376-5.6 10.964z" fill="#ecf0f1"/><path d="M15 .102l-.204.05v43.474l.204.15 9.288-6.807c3.532-2.588 5.6-6.65 5.6-10.964V3.74L15 .102z" fill="#e3e5e4"/><path d="M23.397 35.845L15 42.143l-8.397-6.298a12.68 12.68 0 0 1-5.072-10.144v-20.6L15 1.735l13.47 3.367v20.6a12.68 12.68 0 0 1-5.072 10.144z" fill="#9adad9"/><g fill="#17ab93"><path d="M1.53 20.306V25.7a12.68 12.68 0 0 0 5.072 10.144l8.33 6.247V20.306H1.53zM28.47 5.102L15 1.735l-.068.017v18.554H28.47z"/></g></svg>