<svg xmlns="http://www.w3.org/2000/svg" width="30" height="35" fill-rule="evenodd"><path d="M26.25 11.27C26.25 5.057 21.213.02 15 .02S3.75 5.057 3.75 11.27v18.75h22.5V11.27z" fill="#c63c22"/><path d="M26.25 11.27C26.25 5.057 21.213.02 15 .02l-.064.002V30.02H26.25V11.27z" fill="#a02818"/><path d="M3.75 11.27v18.75h7.5V11.27c0-3.3 1.423-6.266 3.686-8.323V.022A11.25 11.25 0 0 0 3.75 11.27z" fill="#f86e51"/><path d="M15 .02l-.064.002v2.925A11.245 11.245 0 0 1 18.75.663 11.23 11.23 0 0 0 15 .02z" fill="#c63c22"/><path d="M1.44 34.566h27.12a1.44 1.44 0 0 0 1.44-1.44v-4.62a1.44 1.44 0 0 0-1.439-1.439H1.44A1.44 1.44 0 0 0 0 28.505v4.62a1.44 1.44 0 0 0 1.439 1.439z" fill="#d0d5d9"/><path d="M28.56 27.066H14.936v7.5H28.56a1.44 1.44 0 0 0 1.44-1.44v-4.62a1.44 1.44 0 0 0-1.439-1.439z" fill="#929da5"/></svg>