<svg xmlns="http://www.w3.org/2000/svg" width="57" height="93" fill-rule="evenodd"><path d="M50.073 43.86V22.287C50.073 10.373 40.414.714 28.5.714S6.927 10.372 6.927 22.287V43.86l7.19-7.19V22.287c0-7.943 6.44-14.382 14.382-14.382s14.382 6.44 14.382 14.382V36.67l7.19 7.19z" fill="#8a9093"/><path d="M28.5.714l-1 .05v7.19l1-.05c7.943 0 14.382 6.44 14.382 14.382V36.67l7.19 7.19V22.287C50.073 10.373 40.414.714 28.5.714z" fill="#747a7c"/><path d="M8.365 92.183h40.27a8.34 8.34 0 0 0 8.34-8.34v-40.27a8.34 8.34 0 0 0-8.34-8.34H8.365a8.34 8.34 0 0 0-8.34 8.34v40.27a8.34 8.34 0 0 0 8.34 8.34z" fill="#32373b"/><path d="M48.635 35.23H27.5v56.952h21.135a8.34 8.34 0 0 0 8.34-8.34v-40.27a8.34 8.34 0 0 0-8.34-8.34z" fill="#292d30"/><path d="M34.11 60.2a5.61 5.61 0 0 0-5.609-5.609 5.61 5.61 0 0 0-5.609 5.609c0 1.77.822 3.347 2.103 4.375v4.74a3.506 3.506 0 0 0 7.012 0v-4.74A5.598 5.598 0 0 0 34.11 60.2z" fill="#fff"/><path d="M28.5 54.593c-.342 0-.675.035-1 .094V72.66c.32.095.65.162 1 .162a3.506 3.506 0 0 0 3.506-3.506v-4.74a5.598 5.598 0 0 0 2.103-4.375 5.61 5.61 0 0 0-5.609-5.608z" fill="#e3e5e4"/></svg>