<svg width="367" height="345" viewBox="0 0 367 345" xmlns="http://www.w3.org/2000/svg"><g id="Page-1" stroke="none" stroke-width="1" fill="none" fill-rule="evenodd"><g id="day39-pc-2d25aa4929de4c0a6dfdec112c2ff7ce" transform="translate(3 3)"><path d="M58.8 212.8v-200c0-6.6 5.4-12 12-12h220c6.6 0 12 5.4 12 12v200c0 6.6-5.4 12-12 12h-220c-6.7 0-12-5.4-12-12z" id="XMLID_28_" fill="#D4E8DC"/><path d="M66.8 203.5v-188c0-2.8 2.2-5 5-5h218c2.8 0 5 2.2 5 5v188c0 2.8-2.2 5-5 5h-218c-2.8 0-5-2.3-5-5z" id="XMLID_31_" fill="#EBF2EE"/><path d="M58.8 212.8v-200c0-6.6 5.4-12 12-12h220c6.6 0 12 5.4 12 12v200c0 6.6-5.4 12-12 12h-220c-6.7 0-12-5.4-12-12z" id="XMLID_16_" stroke="#3A3842" stroke-width="6" stroke-linecap="round" stroke-linejoin="round"/><path d="M76.8 175.5v-146c0-3.9 3.1-7 7-7h194c3.9 0 7 3.1 7 7v146c0 3.9-3.1 7-7 7h-194c-3.9 0-7-3.1-7-7z" id="XMLID_32_" fill="#D4E8DC"/><path d="M105.8 173.5c-12.1 0-22-9.9-22-22v-98c0-12.1 9.9-22 22-22h150c12.1 0 22 9.9 22 22v98c0 12.1-9.9 22-22 22h-150z" id="XMLID_30_" fill="#3A3842"/><path d="M259.8 242.8h-158c-4.4 0-8-3.6-8-8v-10h174v10c0 4.4-3.6 8-8 8z" id="XMLID_8_" fill="#EBF2EE"/><path id="XMLID_29_" fill="#D4E8DC" d="M93.8 224.8h174v9h-174z"/><path d="M259.8 242.8h-158c-4.4 0-8-3.6-8-8v-10h174v10c0 4.4-3.6 8-8 8z" id="XMLID_6_" stroke="#3A3842" stroke-width="6" stroke-linecap="round" stroke-linejoin="round"/><path d="M352.8 338.8H8.8c-4.4 0-8-3.6-8-8v-80c0-4.4 3.6-8 8-8h344c4.4 0 8 3.6 8 8v80c0 4.4-3.6 8-8 8z" id="XMLID_7_" fill="#D4E8DC"/><path d="M352.8 338.8H8.8c-4.4 0-8-3.6-8-8v-80c0-4.4 3.6-8 8-8h344c4.4 0 8 3.6 8 8v80c0 4.4-3.6 8-8 8z" id="XMLID_4_" stroke="#3A3842" stroke-width="6" stroke-linecap="round" stroke-linejoin="round"/><path d="M13.2 322.8v-64c0-4.4 3.6-8 8-8h319.1c4.4 0 8 3.6 8 8v64c0 4.4-3.6 8-8 8H21.2c-4.4 0-8-3.6-8-8z" id="XMLID_34_" fill="#EBF2EE"/><circle id="XMLID_37_" fill="#CAB5EA" cx="251" cy="195.1" r="7.5"/><circle id="XMLID_1_" fill="#3A3842" cx="251" cy="195.1" r="6.5"/><circle id="XMLID_39_" fill="#33313A" cx="251" cy="195.1" r="5.6"/><g id="XMLID_24_" transform="translate(40 296)" stroke="#EDBEC4" stroke-linecap="round" stroke-linejoin="round" stroke-width="6"><g id="XMLID_136_" transform="translate(80)"><path d="M1.2.3v27.5" id="XMLID_137_"/></g><g id="XMLID_133_" transform="translate(70)"><path d="M1.2.3v27.5" id="XMLID_134_"/></g><g id="XMLID_130_" transform="translate(60)"><path d="M1.2.3v27.5" id="XMLID_131_"/></g><g id="XMLID_127_" transform="translate(50)"><path d="M1.2.3v27.5" id="XMLID_128_"/></g><g id="XMLID_124_" transform="translate(40)"><path d="M1.2.3v27.5" id="XMLID_125_"/></g><g id="XMLID_121_" transform="translate(30)"><path d="M1.2.3v27.5" id="XMLID_122_"/></g><g id="XMLID_118_" transform="translate(20)"><path d="M1.2.3v27.5" id="XMLID_119_"/></g><g id="XMLID_115_" transform="translate(10)"><path d="M1.2.3v27.5" id="XMLID_116_"/></g><g id="XMLID_112_"><path d="M1.2.3v27.5" id="XMLID_113_"/></g></g><g id="XMLID_42_" transform="translate(41 296)" stroke="#3A3842" stroke-linecap="round" stroke-linejoin="round" stroke-width="4"><g id="XMLID_60_" transform="translate(80)"><path d="M1.1.3v27.5" id="XMLID_61_"/></g><g id="XMLID_58_" transform="translate(70)"><path d="M1.1.3v27.5" id="XMLID_59_"/></g><g id="XMLID_56_" transform="translate(60)"><path d="M1.1.3v27.5" id="XMLID_57_"/></g><g id="XMLID_54_" transform="translate(50)"><path d="M1.1.3v27.5" id="XMLID_55_"/></g><g id="XMLID_52_" transform="translate(40)"><path d="M1.1.3v27.5" id="XMLID_53_"/></g><g id="XMLID_50_" transform="translate(30)"><path d="M1.1.3v27.5" id="XMLID_51_"/></g><g id="XMLID_48_" transform="translate(20)"><path d="M1.1.3v27.5" id="XMLID_49_"/></g><g id="XMLID_46_" transform="translate(10)"><path d="M1.1.3v27.5" id="XMLID_47_"/></g><g id="XMLID_44_"><path d="M1.1.3v27.5" id="XMLID_45_"/></g></g><path d="M141 47.8h55.3" id="XMLID_36_" stroke="#FFF" stroke-width="8" stroke-linecap="round" stroke-linejoin="round"/><path d="M109 47.8h16" id="XMLID_17_" stroke="#FFF" stroke-width="8" stroke-linecap="round" stroke-linejoin="round"/><path d="M255.8 31.5h-7.6c-4.7 63.9-58 114.3-123.1 114.3H83.8v5.7c0 12.1 9.9 22 22 22h150c12.1 0 22-9.9 22-22v-98c0-12.1-9.9-22-22-22z" id="XMLID_40_" fill="#33313A"/><g id="XMLID_72_" transform="translate(230 268)"><path d="M93.4 15.5H2.1c-.7 0-1.4-.6-1.4-1.4v-8c0-.7.6-1.4 1.4-1.4h91.3c.7 0 1.4.6 1.4 1.4v8c0 .8-.6 1.4-1.4 1.4z" id="XMLID_14_" fill="#EDBEC4"/><path d="M59.6 19.5H35.9c-.7 0-1.2-.6-1.2-1.2V2c0-.7.6-1.2 1.2-1.2h23.7c.7 0 1.2.6 1.2 1.2v16.3c.1.7-.5 1.2-1.2 1.2z" id="XMLID_13_" fill="#EDBEC4"/><path id="XMLID_9_" fill="#3A3842" d="M4.8 6.1h86v8h-86z"/><path id="XMLID_11_" fill="#3A3842" d="M35.8 3.1h24v14h-24z"/><path d="M6.8 10.1c0-1.1.9-2 2-2h78c1.1 0 2 .9 2 2s-.9 2-2 2h-78c-1.1 0-2-.9-2-2z" id="XMLID_73_" fill="#33313A"/></g><g id="XMLID_75_" transform="translate(230 294)"><path d="M93.4 14.8H2.1c-.7 0-1.4-.6-1.4-1.4v-8c0-.7.6-1.4 1.4-1.4h91.3c.7 0 1.4.6 1.4 1.4v8c0 .8-.6 1.4-1.4 1.4z" id="XMLID_80_" fill="#EDBEC4"/><path d="M59.6 18.9H35.9c-.7 0-1.2-.6-1.2-1.2V1.4c0-.7.6-1.2 1.2-1.2h23.7c.7 0 1.2.6 1.2 1.2v16.3c.1.6-.5 1.2-1.2 1.2z" id="XMLID_79_" fill="#EDBEC4"/><path id="XMLID_78_" fill="#3A3842" d="M4.8 5.5h86v8h-86z"/><path id="XMLID_77_" fill="#3A3842" d="M35.8 2.5h24v14h-24z"/><path d="M6.8 9.5c0-1.1.9-2 2-2h78c1.1 0 2 .9 2 2s-.9 2-2 2h-78c-1.1 0-2-.9-2-2z" id="XMLID_76_" fill="#33313A"/></g></g></g></svg>