<svg xmlns="http://www.w3.org/2000/svg" xmlns:xlink="http://www.w3.org/1999/xlink" width="328" height="240"><g fill="none" fill-rule="evenodd"><rect fill="#cfd5ec" x="72" y="83" width="203" height="157" rx="43.906"/><rect fill="#73e1ff" x="82" y="71" width="203" height="157" rx="43.906"/><rect stroke="#070808" stroke-width="6" x="82" y="71" width="203" height="157" rx="43.906"/><rect fill="#fff" x="114" y="164" width="133" height="37" rx="11.309"/><path d="M131.02 192.82c-4.626 0-8.375-3.736-8.375-8.344v-20.315c0-.055.007-.108.008-.162h-.278c-4.625 0-8.375 3.735-8.375 8.343v20.314c0 4.608 3.75 8.343 8.375 8.343H238.63c4.56.001 8.283-3.637 8.37-8.18H131.02z" fill="#e4e4e4"/><rect stroke="#070808" stroke-width="6" x="114" y="164" width="133" height="37" rx="11.309"/><g fill="#070808"><circle cx="142" cy="181" r="6"/><circle cx="162" cy="181" r="6"/><circle cx="182" cy="181" r="6"/><circle cx="202" cy="181" r="6"/><circle cx="222" cy="181" r="6"/></g><path d="M118 145s62.008-10.202 53.756-33.158c-6.93-19.287-24.453-5.13-23.844-.555 4.25 31.95 53.1 35.616 62.182 10.506 12.465-34.466-14.072-31.636-9.12-14.153S229.048 94.358 234 120.282" stroke="#070808" stroke-width="6" stroke-linecap="round"/><g fill-rule="nonzero"><path d="M18.885 127a17.92 17.92 0 0 1 3.129-9.997 32.53 32.53 0 0 1 6.786-7.674 43.23 43.23 0 0 0 6.787-6.842 12.61 12.61 0 0 0 3.127-7.853 7.75 7.75 0 0 0-2.832-6.425 12.38 12.38 0 0 0-7.908-2.261c-6.61 0-11.293 3.53-14.045 10.59L0 88.446A27.827 27.827 0 0 1 11.273 74.82a32.002 32.002 0 0 1 17.29-4.813 28.95 28.95 0 0 1 18.59 6.248C52.384 80.42 55 86.15 55 93.444a21.095 21.095 0 0 1-2.065 9.28 28.41 28.41 0 0 1-4.957 7.318 132.258 132.258 0 0 1-5.783 5.712 37.439 37.439 0 0 0-4.958 5.533 9.705 9.705 0 0 0-2.064 5.712H18.885zm15.155 27.102a10 10 0 0 1-16.269-10.948A10 10 0 0 1 36.999 147a9.7 9.7 0 0 1-2.96 7.102z" fill="#cfd5ec"/><path d="M22.885 120a17.92 17.92 0 0 1 3.129-9.997 32.53 32.53 0 0 1 6.786-7.674 43.23 43.23 0 0 0 6.787-6.842 12.61 12.61 0 0 0 3.127-7.853 7.75 7.75 0 0 0-2.832-6.425 12.38 12.38 0 0 0-7.908-2.261c-6.61 0-11.293 3.53-14.045 10.59L4 81.446A27.827 27.827 0 0 1 15.273 67.82a32.002 32.002 0 0 1 17.29-4.813 28.95 28.95 0 0 1 18.59 6.248C56.384 73.42 59 79.15 59 86.444a21.095 21.095 0 0 1-2.065 9.28 28.41 28.41 0 0 1-4.957 7.318 132.258 132.258 0 0 1-5.783 5.712 37.439 37.439 0 0 0-4.958 5.533 9.705 9.705 0 0 0-2.064 5.712H22.885zm15.155 27.102a10 10 0 0 1-16.269-10.948A10 10 0 0 1 40.999 140a9.7 9.7 0 0 1-2.96 7.102z" fill="#ed552e"/><path d="M135.243 35.3c.014-1.97.605-3.893 1.697-5.516 1-1.602 2.243-3.03 3.68-4.234a23.44 23.44 0 0 0 3.681-3.775 7.022 7.022 0 0 0 1.696-4.333 4.31 4.31 0 0 0-1.536-3.545 6.63 6.63 0 0 0-4.289-1.247c-3.586 0-6.125 1.948-7.618 5.843L125 14.04a15.301 15.301 0 0 1 6.114-7.518 17.14 17.14 0 0 1 9.378-2.656 15.53 15.53 0 0 1 10.083 3.447c2.837 2.297 4.255 5.46 4.255 9.484a11.82 11.82 0 0 1-1.12 5.121 15.69 15.69 0 0 1-2.688 4.037 71.93 71.93 0 0 1-3.137 3.151 20.55 20.55 0 0 0-2.689 3.053 5.41 5.41 0 0 0-1.119 3.151h-8.834zm8.22 14.953c-1.836 1.85-4.7 2.127-6.846.66s-2.973-4.272-1.978-6.7 3.535-3.803 6.07-3.287 4.36 2.78 4.36 5.4a5.393 5.393 0 0 1-1.605 3.918z" fill="#cfd5ec"/><path d="M137.412 31.448c.014-1.97.605-3.893 1.697-5.516 1-1.602 2.243-3.03 3.68-4.234a23.44 23.44 0 0 0 3.681-3.775 7.022 7.022 0 0 0 1.696-4.333 4.31 4.31 0 0 0-1.536-3.545 6.63 6.63 0 0 0-4.289-1.247c-3.586 0-6.125 1.948-7.618 5.843l-7.554-4.464a15.301 15.301 0 0 1 6.114-7.518 17.14 17.14 0 0 1 9.378-2.656 15.53 15.53 0 0 1 10.083 3.447C155.58 5.748 157 8.9 157 12.935a11.82 11.82 0 0 1-1.12 5.121 15.69 15.69 0 0 1-2.688 4.037 71.93 71.93 0 0 1-3.137 3.151 20.55 20.55 0 0 0-2.689 3.053 5.41 5.41 0 0 0-1.119 3.151h-8.834zm8.22 14.953c-1.836 1.85-4.7 2.127-6.846.66s-2.973-4.272-1.978-6.7 3.535-3.803 6.07-3.287 4.36 2.78 4.36 5.4a5.393 5.393 0 0 1-1.605 3.918z" fill="#ed552e"/><use xlink:href="#B" fill="#cfd5ec"/><use xlink:href="#B" x="1.558" y="-2.777" fill="#ed552e"/></g></g><defs><path id="B" d="M312.362 195.38a7.19 7.19 0 0 1 1.22-3.964 12.83 12.83 0 0 1 2.645-3.043 16.85 16.85 0 0 0 2.646-2.713 5.06 5.06 0 0 0 1.22-3.114 3.095 3.095 0 0 0-1.104-2.548 4.773 4.773 0 0 0-3.083-.897c-2.577 0-4.402 1.4-5.475 4.2l-5.43-3.21a10.997 10.997 0 0 1 4.394-5.403 12.332 12.332 0 0 1 6.74-1.91 11.164 11.164 0 0 1 7.247 2.477c2.04 1.65 3.06 3.924 3.06 6.817a8.486 8.486 0 0 1-.805 3.68 11.287 11.287 0 0 1-1.932 2.902l-2.254 2.265a14.77 14.77 0 0 0-1.933 2.194 3.89 3.89 0 0 0-.805 2.265h-6.35zm5.908 10.747c-1.32 1.33-3.38 1.53-4.92.474s-2.137-3.07-1.422-4.815 2.54-2.734 4.363-2.363 3.133 1.998 3.133 3.888a3.88 3.88 0 0 1-1.154 2.816z"/></defs></svg>