<svg xmlns="http://www.w3.org/2000/svg" viewBox="0 0 330.77 192.73"><ellipse cx="185.07" cy="184.81" rx="145.7" ry="7.91" fill="#3e3127"/><path d="M286.22 171.23H85.74a4.76 4.76 0 0 1-4.74-4.76V38.87c0-2.63 2.13-7.76 4.76-7.76h200.46c2.62 0 4.75 5.13 4.75 7.76v127.6a4.76 4.76 0 0 1-4.75 4.76z" fill="#637582"/><path d="M291 34.17v4.63c0-2.63.87-4.76-1.75-4.76H83.73C81.1 34 81 36.17 81 38.8v-4.63a4.76 4.76 0 0 1 4.75-4.76h200.47a4.76 4.76 0 0 1 4.78 4.76z" fill="#9fb1bc"/><path d="M89.54 168V40.62H282.4v127.26" fill="#caeefc"/><path d="M89.72 162.85H282.6v4.65H89.72z" fill="#78abba"/><path d="M89.72 41.84H282.6v4.65H89.72z" fill="#fff"/><path d="M293 168.83h-4V35a2.75 2.75 0 0 0-2.75-2.75H85.74A2.76 2.76 0 0 0 83 35v133h-4V35a6.76 6.76 0 0 1 6.76-6.75h200.46A6.76 6.76 0 0 1 293 35z" fill="#3e3127"/><rect x="52.13" y="168.83" width="267.7" height="14.84" rx="7.42" fill="#637582"/><path d="M319.83 177.23a7.41 7.41 0 0 1-7.42 7.42H59.55a7.42 7.42 0 0 1-7.42-7.42 7.3 7.3 0 0 1 1-3.71 7.39 7.39 0 0 0 6.42 3.71H312.4a7.42 7.42 0 0 0 5.25-2.17 7.28 7.28 0 0 0 1.17-1.54 7.3 7.3 0 0 1 1 3.71z" fill="#455760"/><path d="M312.4 186.32H59.55a9.42 9.42 0 1 1 0-18.84H312.4a9.42 9.42 0 0 1 0 18.84zM59.55 171.48a5.42 5.42 0 1 0 0 10.84H312.4a5.42 5.42 0 0 0 0-10.84z" fill="#3e3127"/><g fill="#78abba"><path d="M166.16 121.06l-27.9 2.83L91 129.32v-7.43l42.18-4.9 32.2-3.32a46.45 46.45 0 0 0 .77 7.38z"/><path d="M253.15 129.68a46.25 46.25 0 0 1-88.45-8.47 46.45 46.45 0 0 1-.77-7.34v-1.23l.15-3.8v-.13a45.71 45.71 0 0 0 5.13 17.6 46.35 46.35 0 0 0 80 3.38l7.52-10.76z"/></g><path d="M91.04 168.7h-3V39.8h195.88v128.76h-3V42.8H91.04v125.9zM72 41.67a18.4 18.4 0 0 1 6.23-34.1l1.13-.14a16.7 16.7 0 0 1 12.94 4.35A17.82 17.82 0 0 1 98.17 25v.76h-2V25A15.82 15.82 0 0 0 91 13.26a14.74 14.74 0 0 0-11.41-3.84c-.33 0-.67.07-1 .13A16.4 16.4 0 0 0 73 39.94zm32-28.1a6.79 6.79 0 1 1 6.79-6.79 6.8 6.8 0 0 1-6.79 6.79zM104 2a4.79 4.79 0 1 0 4.79 4.79A4.8 4.8 0 0 0 104 2zm181.9 19.33a1 1 0 0 1-1-1V5.55a1 1 0 0 1 2 0v14.78a1 1 0 0 1-1 1zm30.37 21.87h-14.4a1 1 0 0 1 0-2h14.4a1 1 0 0 1 0 2zm-5-27.85a1 1 0 0 1-.68-1.74l5.56-5.14a1 1 0 1 1 1.36 1.46l-5.56 5.15a1 1 0 0 1-.68.27zM298.23 27.4a1 1 0 0 1-.68-1.74l7.85-7.27a1.001 1.001 0 1 1 1.36 1.47l-7.85 7.27a1 1 0 0 1-.68.27zm-4.97-4.78a1 1 0 0 1-.85-1.52l3.4-5.58a1.001 1.001 0 1 1 1.71 1.04l-3.4 5.6a1 1 0 0 1-.85.47zm12.82 12.48h-4.22a1 1 0 0 1 0-2h4.22a1 1 0 0 1 0 2z" fill="#3e3127"/><path d="M163.9 112.7c-11.44 1.4-23 2.27-34.42 3.58l-78.44 9c-10.47 1.2-21.26 4.13-31.8 1.87S2 115 2 104.47v.8C2 94.73 8.76 84.85 19.25 82.6s21.33.67 31.8 1.87l78.44 9 34.43 3.58" fill="#ecebeb"/><path d="M161.94 99.67v3.82c-11.45-1.4-23.05-2.27-34.43-3.58l-78.44-9C38.6 89.7 27.8 86.78 17.27 89 7.55 91.12 1 99.75.14 109.4a17.33 17.33 0 0 1-.14-1.91C.16 97.1 6.88 87.43 17.24 85.2c10.54-2.26 21.33.67 31.8 1.87l78.44 9 34.46 3.6z" fill="#fff"/><path d="M166.16 108.13v5c-11.45 1.42-23 2.28-34.43 3.58l-78.43 9c-10.47 1.3-21.3 4.17-31.8 1.9-10.34-2.22-17.07-11.88-17.24-22.27a24 24 0 0 1 .58-4.95c1.85 8.38 8 15.48 16.66 17.33 10.55 2.26 21.34 4.2 31.8 3l78.43-9 34.43-3.6z" fill="#c4c4c4"/><path d="M253.15 119.7a46.31 46.31 0 1 1-1.2-36.6h-37v36.6z" fill="#ecebeb"/><path d="M252.75 85.28h-3a46.18 46.18 0 0 0-84.94 22.27l-.08-2.7a46.19 46.19 0 0 1 88-19.56z" fill="#fff"/><path d="M253.15 120.9a46.25 46.25 0 0 1-89.24-17 44.16 44.16 0 0 1 .28-5 45.62 45.62 0 0 0 5 16.48 46.35 46.35 0 0 0 78.44 5.6z" fill="#c4c4c4"/><path d="M183.9 86.3h22.33v7.1H183.9zm0 12.43h22.33v7.1H183.9zm0 12.42h22.33v7.1H183.9z" fill="#fff"/><g fill="#3e3127"><path d="M27.65 131.3a41.88 41.88 0 0 1-8.82-.87C8.17 128.16.36 118.2 0 106.62v-.82C.36 94.2 8.17 84.26 18.83 82c8.3-1.78 16.67-.5 24.75.75l7.7 1.1 78.44 9 15.5 1.6 19 2-.5 4c-6.25-.78-12.66-1.4-18.85-2l-15.57-1.6-78.44-9c-2.6-.3-5.27-.7-7.85-1.1-7.72-1.2-15.7-2.43-23.3-.8C10.7 87.8 4.18 96.32 4 106.2c.18 9.9 6.7 18.4 15.67 20.32 7.6 1.63 15.58.4 23.3-.8l7.84-1.1 78.44-9 15.55-1.6 18.86-2 .5 4c-6.3.78-12.74 1.4-19 2l-15.47 1.6-78.44 9c-2.53.3-5.16.7-7.7 1.08a104.51 104.51 0 0 1-15.91 1.61z"/><path d="M210.1 152.52a48.19 48.19 0 1 1 43.66-68.59l1.34 2.84h-38.2v32.6h39.17L255 122.1a47.77 47.77 0 0 1-44.9 30.42zm0-92.37a44.19 44.19 0 1 0 40 63.22h-37.2v-40.6h35.77a44.4 44.4 0 0 0-38.58-22.62zm-2.86 35.52H182.9v-9.1h24.33zm-22.33-2h20.33v-5.1H184.9zm22.33 14.4H182.9V99h24.33zm-22.33-2h20.33V101H184.9zm22.33 14.42H182.9v-9.1h24.33zm-22.33-2h20.33v-5.1H184.9z"/></g><g fill="#c4c4c4"><circle cx="47.38" cy="120.36" r="3.1"/><circle cx="202.06" cy="139.86" r="4.33"/></g><circle cx="270.12" cy="160.84" r="4.33" fill="#78abba"/><path d="M105.32 46.34a4.33 4.33 0 0 1-8.66 0C96.66 44 98.6 44 101 44s4.32 0 4.32 2.34z" fill="#fff"/><g fill="#d2eef9"><circle cx="106.84" cy="51.86" r="2.16"/><circle cx="96.53" cy="51.78" r="1.08"/></g><g fill="#c4c4c4"><circle cx="51.09" cy="116.41" r="1.2"/><circle cx="207.53" cy="134.53" r="1.2"/></g><circle cx="273.26" cy="153.32" r="1.2" fill="#78abba"/><circle cx="197.04" cy="133.72" r="1.96" fill="#c4c4c4"/><circle cx="261.13" cy="154.22" r="3.02" fill="#78abba"/><path d="M63 96.92h-.1l-10.73-1.26a1.007 1.007 0 1 1 .23-2l10.73 1.25a1.002 1.002 0 0 1-.11 2zm2 3.38h-.1l-6.4-.75a1.007 1.007 0 1 1 .23-2l6.4.75a1.002 1.002 0 0 1-.11 2zm230.12 75.9a.49.49 0 0 1-.5-.49.5.5 0 0 1 .5-.51h10.8a.49.49 0 0 1 .5.49.51.51 0 0 1-.49.51h-10.8zm6.74 2.12a.49.49 0 0 1-.5-.49.51.51 0 0 1 .5-.51h6.45a.5.5 0 0 1 .5.5.49.49 0 0 1-.49.5h-6.46zM61.8 176.2a.49.49 0 0 1-.5-.49.5.5 0 0 1 .5-.51h10.8a.51.51 0 0 1 .5.49.52.52 0 0 1-.5.51H61.8zm6.75 2.12a.5.5 0 0 1-.5-.49.51.51 0 0 1 .5-.51H75a.5.5 0 0 1 0 1h-6.46zM255.58 66a1 1 0 0 1-.73-1.68l11.27-12.2a1 1 0 1 1 1.47 1.35l-11.27 12.2a1 1 0 0 1-.74.32zM267 60.63a1 1 0 0 1-.74-1.68l6.74-7.3a1.006 1.006 0 0 1 1.5 1.34l-6.74 7.3a1 1 0 0 1-.76.34zm41.08 98.27a6.79 6.79 0 1 1 6.79-6.79 6.8 6.8 0 0 1-6.79 6.79zm0-11.58a4.79 4.79 0 1 0 4.79 4.79 4.8 4.8 0 0 0-4.79-4.79zm-99.48 29.93h-44.9a15.42 15.42 0 0 1-13.57-8.09 1 1 0 1 1 1.76-.95 13.42 13.42 0 0 0 11.81 7h44.9a13.42 13.42 0 0 0 11.81-7 1 1 0 1 1 1.76.95 15.42 15.42 0 0 1-13.57 8.09z" fill="#3e3127"/><path d="M221.3 69.1a.75.75 0 0 1-.21 0 43.52 43.52 0 0 0-18.35-.1 1 1 0 0 1-1.19-.76 1 1 0 0 1 .77-1.19 45.18 45.18 0 0 1 19.19.1 1 1 0 0 1 .77 1.18 1 1 0 0 1-.98.77zm-31.65 5.32a1 1 0 0 1-.62-1.79 30.52 30.52 0 0 1 6.97-3.69 1.001 1.001 0 1 1 .74 1.86 28.6 28.6 0 0 0-6.46 3.41 1 1 0 0 1-.63.21zm-91.9-7.1a1.5 1.5 0 0 1-1.5-1.5V59.5a1.5 1.5 0 1 1 3 0v6.34a1.5 1.5 0 0 1-1.5 1.5zm0 17.47a1.5 1.5 0 0 1-1.5-1.5v-9.93a1.5 1.5 0 0 1 3 0v9.93a1.5 1.5 0 0 1-1.5 1.5zm-4.64 9.86v.46A2.88 2.88 0 0 0 95.63 98l23.6 2.94a2.89 2.89 0 0 0 3.24-2.87V96.9" fill="#fff"/></svg>