<svg xmlns="http://www.w3.org/2000/svg" xmlns:xlink="http://www.w3.org/1999/xlink" width="76" height="76"><style>.B{stroke-linejoin:round}.C{stroke-width:6}.D{stroke:#413e51}.E{fill:#413e51}.F{fill:#514e55}.G{stroke-linecap:round}</style><g fill="none" fill-rule="evenodd"><path d="M68.465 6.204H14.65c-.663 0-1.327.265-1.79.752l-5.992 5.992a2.53 2.53 0 0 0-.752 1.791v53.815a3.99 3.99 0 0 0 3.98 3.98h58.37a3.99 3.99 0 0 0 3.98-3.98v-58.37a3.99 3.99 0 0 0-3.98-3.98z" stroke="#4b94a5" fill="#4b94a5" class="B C"/><use xlink:href="#B" fill="#747178"/><circle stroke="#464349" stroke-width="4" opacity=".43" cx="36.649" cy="37.49" r="28.013" class="F"/><use xlink:href="#B" class="B C D"/><circle fill="#c9c9c9" cx="36.649" cy="37.49" r="9.286"/><circle cx="36.649" cy="37.49" r="9.286" class="B C D"/><use xlink:href="#C" class="E"/><use xlink:href="#C" class="B C D"/><path d="M62.628 60.042h3.095v3.095h-3.095z" class="E"/><g class="B D"><path d="M62.628 60.042h3.095v3.095h-3.095z" class="C"/><path d="M45.936 57.1H60.75" stroke-width="8" class="G"/></g><path d="M35.433 36.163h2v2h-2z" class="E"/><path d="M35.433 36.163h2v2h-2z" class="B C D"/><path d="M36.83 41.05l4.173-1.463.732 2.086-4.173 1.463z" class="E"/><path d="M36.83 41.05l4.173-1.463.732 2.086-4.173 1.463z" class="B C D"/><path d="M69.814 16.928a2.66 2.66 0 0 1-2.653-2.653 2.66 2.66 0 0 1 2.653-2.653v5.306z" class="E"/><path d="M69.814 16.928a2.66 2.66 0 0 1-2.653-2.653 2.66 2.66 0 0 1 2.653-2.653v5.306z" class="B C D"/><path d="M3.485 16.928a2.66 2.66 0 0 0 2.653-2.653 2.66 2.66 0 0 0-2.653-2.653v5.306z" class="E"/><path d="M3.485 16.928a2.66 2.66 0 0 0 2.653-2.653 2.66 2.66 0 0 0-2.653-2.653v5.306z" class="B C D"/><g class="E"><circle cx="8.283" cy="20.354" r="1.879"/><circle cx="63.668" cy="20.354" r="1.879"/></g><use xlink:href="#D" class="F"/><g class="B C D"><path d="M47.04 23.56H27.584a3.99 3.99 0 0 1-3.98-3.98V3.22H51.02v16.36a3.98 3.98 0 0 1-3.98 3.98z" opacity=".48"/><use xlink:href="#D"/></g><path d="M49.694 6.094H57.1" stroke-width="8" class="B D G"/><use xlink:href="#E" fill="#bfc1c0"/><path opacity=".52" d="M38.308 23.56L49.694 7.84V4.237L35.345 23.56zm-11.32-.066c.265.044-1.017.088-.73.088h6.6l15.2-20.34H42.1L26.987 23.494z" fill="#ddd"/><use xlink:href="#E" class="B C D"/><path d="M27.275 5.652h5.306v12.824h-5.306z" class="F"/><path opacity=".48" d="M27.275 5.652h2.963v12.824h-2.963z" class="E"/><g class="B C D"><path d="M27.275 5.652h5.306v12.824h-5.306zm16.915 0h2.653V6.98H44.2z"/><path d="M8.636 69.55v-5.306" class="G"/></g></g><defs><path id="B" d="M65.834 3.22H12.02c-.663 0-1.327.265-1.79.752L4.237 9.963a2.53 2.53 0 0 0-.752 1.791V65.57a3.99 3.99 0 0 0 3.98 3.98h58.37a3.99 3.99 0 0 0 3.98-3.98V7.2a3.99 3.99 0 0 0-3.98-3.98z"/><path id="C" d="M59.644 69.55H13.655v-5.53a3.99 3.99 0 0 1 3.98-3.98h38.03a3.99 3.99 0 0 1 3.98 3.98v5.527z"/><path id="D" d="M56.77 23.56H26.26a3.99 3.99 0 0 1-3.98-3.98V3.22h38.47v16.36a3.98 3.98 0 0 1-3.98 3.98z"/><path id="E" d="M45.714 23.56H26.258a3.99 3.99 0 0 1-3.98-3.98V3.22h27.416v16.36a3.98 3.98 0 0 1-3.98 3.98z"/></defs></svg>