<svg id="SvgjsSvg1022" width="288" height="288" xmlns="http://www.w3.org/2000/svg" version="1.1" xmlns:xlink="http://www.w3.org/1999/xlink" xmlns:svgjs="http://svgjs.com/svgjs"><g id="SvgjsG1024" transform="translate(11.995 12.003) scale(.9167)"><svg xmlns="http://www.w3.org/2000/svg" id="Layer_1" viewBox="0 0 128 128" width="288" height="288"><path fill="#f2c52d" d="M115.1 35.8c-5.9.1-10.8 5.3-10.5 11.2.1 3.3 1.7 6.1 4.1 8-12.4 16.6-25 17.9-39.6-9.6 5.2-2.6 8.1-9.2 4.3-15.8-1.8-3.2-5.5-4.8-9.2-4.6H64h-.2c-3.7-.1-7.3 1.4-9.2 4.6-3.8 6.6-.9 13.2 4.3 15.8C44.3 72.9 31.7 71.6 19.3 55c2.4-1.9 4-4.8 4.1-8 .2-5.9-4.6-11.1-10.5-11.2-6.1-.1-11 4.7-11 10.8 0 5.9 4.8 10.8 10.8 10.8.4 0 .9 0 1.3-.1l4.1 40.2c.3 3.2 3 5.6 6.2 5.6h79.4c3.2 0 5.9-2.4 6.2-5.6l4.1-40.2c.4.1.8.1 1.3.1 5.9 0 10.8-4.8 10.8-10.8 0-6.1-5-10.9-11-10.8z" class="color3c4652 svgShape"/></svg></g></svg>