<svg width="359" height="351" viewBox="0 0 359 351" xmlns="http://www.w3.org/2000/svg"><g id="Page-1" stroke="none" stroke-width="1" fill="none" fill-rule="evenodd"><g id="day42-imac-400a443144902a220c67635c9e940fbd" transform="translate(3 3)"><path d="M260.2 312.6H92.3c-3 0-5.5-2.5-5.5-5.5s2.5-5.5 5.5-5.5h167.9c3 0 5.5 2.5 5.5 5.5s-2.5 5.5-5.5 5.5z" id="XMLID_5_" fill="#1C1C1C" opacity=".32"/><path d="M352.2 204.1H.2V15.7C.2 7 7.2 0 15.9 0H336c8.9 0 16.2 7.3 16.2 16.2v187.9z" id="XMLID_7_" fill="#383939"/><path d="M6.2 189.1v-174c0-5 4-9 9-9h322c5 0 9 4 9 9v174c0 5-4 9-9 9h-322c-4.9 0-9-4.1-9-9z" id="XMLID_30_" fill="#3A3A3A"/><path d="M352.2 204.1H.2V15.7C.2 7 7.2 0 15.9 0H336c8.9 0 16.2 7.3 16.2 16.2v187.9z" id="XMLID_18_" stroke="#383939" stroke-width="6" stroke-linecap="round" stroke-linejoin="round"/><path id="XMLID_10_" fill="#4F4F4F" transform="rotate(90 176.185 102.02)" d="M94.185-53.98h164v312h-164z"/><path d="M335.9 252.1H16C7.3 252.1.2 245 .2 236.3v-32.2h352v31.7c0 8.9-7.3 16.3-16.3 16.3z" id="XMLID_19_" fill="#D4E8DC"/><path d="M16 244.1c-4.3 0-7.8-3.5-7.8-7.8v-28.9h336v28.4c0 4.6-3.7 8.3-8.3 8.3H16z" id="XMLID_4_" fill="#EBF2EE"/><path d="M335.9 252.1H16C7.3 252.1.2 245 .2 236.3v-32.2h352v31.7c0 8.9-7.3 16.3-16.3 16.3z" id="XMLID_6_" stroke="#383939" stroke-width="6" stroke-linecap="round" stroke-linejoin="round"/><path id="XMLID_22_" fill="#CAD8D0" d="M229.2 288.1h-106l15.7-36h74.6z"/><path id="XMLID_27_" fill="#A1ADA6" d="M220.5 268.1l-7-16h-74.6l-7 16z"/><path id="XMLID_1_" stroke="#383939" stroke-width="6" stroke-linecap="round" stroke-linejoin="round" d="M229.2 288.1h-106l15.7-36h74.6z"/><path d="M249.2 304.1h-146l1.5-5.3c1.8-6.3 7.7-10.7 14.5-10.7h114c6.8 0 12.8 4.4 14.5 10.7l1.5 5.3z" id="XMLID_23_" fill="#DAEDE2"/><path d="M249.2 304.1h-146l1.5-5.3c1.8-6.3 7.7-10.7 14.5-10.7h114c6.8 0 12.8 4.4 14.5 10.7l1.5 5.3z" id="XMLID_9_" stroke="#383939" stroke-width="6" stroke-linecap="round" stroke-linejoin="round"/><path d="M46.1 345h253.7a6.7 6.7 0 0 0 0-13.4H46.1c-3.7 0-6.7 3-6.7 6.7-.1 3.7 2.9 6.7 6.7 6.7z" id="XMLID_24_" fill="#DAEDE2"/><path d="M46.1 345h253.7a6.7 6.7 0 0 0 0-13.4H46.1c-3.7 0-6.7 3-6.7 6.7-.1 3.7 2.9 6.7 6.7 6.7z" id="XMLID_8_" stroke="#383939" stroke-width="6" stroke-linecap="round" stroke-linejoin="round"/><path d="M123.9 331.5h122v-4c0-3.3-2.7-6-6-6h-110c-3.3 0-6 2.7-6 6v4z" id="XMLID_11_" fill="#383939"/><path d="M99.7 331.5h21.2v-4c0-3.3-2.7-6-6-6h-9.2c-3.3 0-6 2.7-6 6v4z" id="XMLID_13_" fill="#383939"/><path d="M75 331.5h21.2v-4c0-3.3-2.7-6-6-6H81c-3.3 0-6 2.7-6 6v4z" id="XMLID_14_" fill="#383939"/><path d="M274.2 331.5h21.2v-4c0-3.3-2.7-6-6-6h-9.2c-3.3 0-6 2.7-6 6v4z" id="XMLID_17_" fill="#383939"/><path d="M249.6 331.5h21.2v-4c0-3.3-2.7-6-6-6h-9.2c-3.3 0-6 2.7-6 6v4z" id="XMLID_16_" fill="#383939"/><path d="M50.4 331.5h21.2v-4c0-3.3-2.7-6-6-6h-9.2c-3.3 0-6 2.7-6 6v4z" id="XMLID_15_" fill="#383939"/><path d="M190.4 225.6c-4.6 0-8.4-3.4-9-7.9h-.2c-5.7 0-10.3 4.6-10.3 10.3 0 5.7 4.6 10.3 10.3 10.3 5.7 0 10.3-4.6 10.3-10.3 0-.9-.1-1.7-.3-2.5-.3.1-.5.1-.8.1z" id="XMLID_21_" fill="#383939"/><path id="XMLID_28_" fill="#C2D3C9" opacity=".16" d="M55.6 184.1h38.2l83.6-164h-38.2z"/><path id="XMLID_29_" fill="#C2D3C9" opacity=".16" d="M124.7 184.1l83.6-164H194l-83.6 164z"/></g></g></svg>