<svg xmlns="http://www.w3.org/2000/svg" xmlns:xlink="http://www.w3.org/1999/xlink" width="259" height="186"><style>.B{opacity:.72}.C{fill:#a5143a}.D{stroke:#601b23}.E{stroke-linejoin:round}.F{stroke-width:6}.G{fill:#f4a15d}.H{opacity:.37}.I{opacity:.23}.J{opacity:.32}.K{fill:#cf264d}.L{fill:#601b23}.M{stroke-width:4}.N{stroke-linecap:round}.O{fill-rule:nonzero}</style><g fill="none" fill-rule="evenodd"><path d="M259 139.7a13.83 13.83 0 0 0-8.754 7.77 29.571 29.571 0 0 0-9.97-1.735c-10.36 0-19.477 5.335-24.76 13.4-2.745-1.295-5.802-1.994-9.04-1.994-1.424 0-2.797.13-4.118.414v-.414c0-6.605-4.662-12.12-10.852-13.442-2.383-8.158-9.894-14.14-18.83-14.14-7.433 0-13.908 4.144-17.223 10.23-2.305-2.15-5.387-3.496-8.78-3.496a13.15 13.15 0 0 0-5.439 1.191 71.14 71.14 0 0 1-5.335-9.894c-3.78-8.547-5.88-18.078-5.88-28.076 0-.906.026-1.787.052-2.694.44-11.577 3.678-22.43 9.1-31.9h-22.403c5.413 9.48 8.65 20.357 9.1 31.935l.052 2.642a69.74 69.74 0 0 1-5.724 27.74 69.216 69.216 0 0 1-9.195 15.4 17.02 17.02 0 0 0-13.287-6.346c-5.387 0-10.18 2.486-13.313 6.37a16.77 16.77 0 0 0-8.547-2.331c-5.025 0-9.557 2.227-12.64 5.724-4.558-6.76-12.277-11.215-21.03-11.215-13.986 0-25.33 11.344-25.33 25.33v.233C7.356 165.202.7 174.785.052 186H259v-46.3z" fill="#fff"/><use xlink:href="#B" fill="#c11a4d"/><path d="M88.423 60.515l8.392-3.263c.1-2.272-.055-4.55-.466-6.786a31.161 31.161 0 0 0-3.393-9.53l-4.532 3.548-.001 16.03z" class="B C"/><path d="M89.5 48.963L114.364 29.6v-5.335L88.412 44.457v16.058L89.5 60.1z" class="G I"/><path d="M104.04 56.5c1.424.233 2.77.7 4.04 1.373l6.268-3.3v-30.33l-10.93 8.52c-.544 3.3-.803 6.734-.803 10.282.026 4.688.518 9.22 1.425 13.442v.003z" class="B C"/><use xlink:href="#B" class="D E F"/><g class="G"><use xlink:href="#D" class="I"/><use xlink:href="#E" class="J"/></g><g class="C"><use xlink:href="#F" class="H"/><use xlink:href="#G" class="B"/><use xlink:href="#H" class="H"/><use xlink:href="#I" class="B"/></g><use xlink:href="#J" class="L"/><use xlink:href="#C" class="D E F"/><use xlink:href="#K" class="K"/><path d="M103.082 97.1a3.06 3.06 0 0 0 2.616-2.978l.285-25.64c-.13-.777.078-1.58.57-2.176l4.248-5.3-.958-2.642-6.76 8.417a2.75 2.75 0 0 0-.57 2.176l.57 28.143z" class="G J"/><path d="M119.32 84.705l-9.453-26.34-3.755 4.688c2.02 7.77 5.206 15.67 9.505 23.543 2.28-1.58 3.704-1.9 3.704-1.9v-.001z" class="B C"/><g class="D E"><use xlink:href="#K" class="F"/><path d="M83.217 61.292h8.52" class="M N"/></g><use xlink:href="#C" class="K"/><g class="G"><use xlink:href="#D" class="I"/><use xlink:href="#E" class="J"/></g><g class="C"><use xlink:href="#F" class="H"/><use xlink:href="#G" class="B"/><use xlink:href="#H" class="H"/><use xlink:href="#I" class="B"/></g><use xlink:href="#J" x=".467" class="L"/><g class="D E"><use xlink:href="#C" class="F"/><path d="M83.217 61.292h8.52" class="M N"/></g><use xlink:href="#L" fill="#c11a4d"/><path d="M166.304 60.515l-8.392-3.263c-.1-2.272.055-4.55.466-6.786.605-3.34 1.75-6.56 3.393-9.53l4.532 3.548.001 16.03z" class="B C"/><path d="M165.242 48.963L140.378 29.6v-5.335l25.926 20.202v16.058l-1.062-.414z" class="G I"/><path d="M150.686 56.5c-1.425.233-2.77.7-4.04 1.373l-6.268-3.3v-30.33l10.93 8.52c.544 3.3.803 6.734.803 10.282 0 4.688-.492 9.22-1.424 13.442l-.001.003z" class="B C"/><use xlink:href="#L" class="D E F"/><use xlink:href="#M" class="K"/><g class="B C"><path d="M151.645 97.1a3.06 3.06 0 0 1-2.616-2.978l-.285-25.64a2.727 2.727 0 0 0-.57-2.176l-4.248-5.3.958-2.642 6.786 8.443a2.75 2.75 0 0 1 .57 2.176l-.595 28.117z"/><path d="M135.43 84.705l9.454-26.34 3.755 4.688c-2.02 7.77-5.206 15.67-9.505 23.543-2.28-1.58-3.704-1.9-3.704-1.9v-.001z"/></g><use xlink:href="#M" class="D E F"/><use xlink:href="#N" fill="#4e8280"/><path d="M123.543 99.52c-.285-3.082.13-5.983 5.3-13.623.155-.233.363-.414.57-.544-.984-.648-2.486-.466-3.186.544-5.18 7.666-5.594 10.567-5.3 13.623.052.388.75.83 1.2.673.44-.207.932-.414 1.45-.57 0-.026-.026-.052-.026-.104h-.008zm5.88-.414c1.787.13 3.47.492 4.688 1.088.388.155 1-.207 1.165-.57-1.7-.492-3.833-.673-5.853-.518z" class="G J O"/><path d="M127.143 85.897c-.078-.104-.155-.18-.233-.26.958-.958 2.745-.855 3.522.26 5.18 7.666 5.594 10.567 5.3 13.623-.052.388-.75.83-1.2.673-.596-.3-1.32-.544-2.098-.725.285-3.056-.155-5.957-5.3-13.572l-.001.001z" fill="#37605d"/><use xlink:href="#N" class="D E F"/><use xlink:href="#O" class="K"/><path d="M117.638 34.6c1.554-12.846 5.594-23.05 11.033-30.692-.18-.13-.388-.26-.57-.388-9.687 6.397-17.353 16.628-19.736 30.82-2.745 16.343 1.7 35.95 13.882 55.918h2.46c-6.76-19.97-9.04-39.16-7.07-55.66l.001.002z" class="G I"/><g class="C"><path d="M147.837 34.304c-2.357-14.1-9.92-24.268-19.53-30.666 2.412 3.875 4.417 8 5.983 12.277 3.496 9.557 3.885 17.43 4.092 22.378.932 22.248-7.6 46.853-9.376 51.955h4.947c12.2-19.995 16.628-39.6 13.882-55.944h.002z" class="H"/><path d="M147.837 34.304C145.454 20.11 137.787 9.88 128.1 3.484c-.26.155-.492.337-.75.492a43.91 43.91 0 0 1 8.6 8.9c19.062 26.522.777 66.226-1.735 71.484a56.56 56.56 0 0 0-1.89-12.95 58.63 58.63 0 0 0-2.927-8.288l-1.166 26.34h3.212a8.03 8.03 0 0 1-.26.75h2.72c12.25-19.97 16.68-39.575 13.934-55.918l-.002.01z" class="B"/></g><path d="M111.63 38.8c.363-4.144 1.7-17.612 10.023-28.67 1.32-1.735 3.3-4.092 3.134-4.222-.233-.207-4.8 3.9-8.03 8.288-4.066 5.465-7.045 12.173-8.366 20.098-2.745 16.343 1.7 35.95 13.882 55.918h1.062a118.36 118.36 0 0 1-7.045-17.405c-.984-3.186-2.72-8.832-3.807-16.395-.7-5.076-1.476-10.515-.855-17.612h.002z" class="G J"/><circle stroke="#a5143a" cx="129.5" cy="37.101" r="7.045" class="B C"/><use xlink:href="#O" class="D"/><circle fill="#abcfd8" cx="128.101" cy="36.013" r="7.045"/><circle fill="#e2f0f2" opacity=".93" cx="127.143" cy="35.625" r="4.248"/><circle cx="128.101" cy="36.013" r="7.045" class="D E F"/><use xlink:href="#P" class="L"/><use xlink:href="#P" class="D E F"/><use xlink:href="#Q" fill="#bc1d4e"/><use xlink:href="#Q" opacity=".74" class="C"/><path d="M127.972 62.897c-1.528.7-2.564 3.73-2.357 7.02l1.942 31.702c.026.337.18.622.4.7V62.9h.026l-.001-.002zm.024.17h.55c-.2-.1-.4-.1-.55 0z" opacity=".53" class="G O"/><use xlink:href="#Q" class="D E F"/><use xlink:href="#C" x="80.446" class="K"/><g class="G"><path d="M168.013 35.417l.907 1.062c-2.694 4.144-4.248 9.013-4.274 14.193 0 5.128.777 9.92 3.42 14.064h-2.383c-2.616-3.833-4.144-8.366-4.144-13.2 0-6.164 2.435-11.784 6.475-16.1l-.001-.01z" class="I"/><path d="M168.013 35.417a4.51 4.51 0 0 1 .311.363c-3.03 4.48-4.766 9.738-4.8 15.385 0 4.895 1.32 9.505 3.626 13.572h-1.476c-2.616-3.833-4.144-8.366-4.144-13.2 0-6.164 2.435-11.784 6.475-16.1l-.002-.01z" class="J"/></g><g class="C"><use xlink:href="#F" x="80.444" class="H"/><use xlink:href="#G" x="80.444" class="B"/><path d="M168.376 35.417l-.906 1.062c2.694 4.144 4.248 9.013 4.273 14.193 0 5.128-1.502 9.92-4.144 14.064h3.108c2.616-3.833 4.144-8.366 4.144-13.2 0-6.164-2.435-11.784-6.475-16.1v-.01z" class="H"/><path d="M168.376 35.417a4.51 4.51 0 0 0-.311.363c3.03 4.48 4.766 9.738 4.8 15.385 0 4.895-1.32 9.505-3.626 13.572h1.476c2.616-3.833 4.144-8.366 4.144-13.2 0-6.164-2.435-11.784-6.475-16.1l.002-.01z" class="B"/></g><use xlink:href="#J" x="80.937" class="L"/><g class="D E"><use xlink:href="#C" x="80.446" class="F"/><path d="M164.154 61.292h8.52" class="M N"/></g><path d="M120.124 11.538s1.76-2.77 7.744-7.433c-2.77 3.756-3.315 6.112-3.497 6.294-1.76.337-4.248 1.14-4.248 1.14l.001-.001z" fill="#fff" opacity=".4"/></g><defs><path id="B" d="M96.866 57.225l-8.443 3.3V44.483l25.926-20.228v30.33l-6.268 3.3a13.52 13.52 0 0 0-11.215-.648v-.002z"/><path id="C" d="M85.677 64.7c-2.642-3.833-4.17-8.366-4.17-13.2 0-6.138 2.4-11.76 6.423-16.084 4.014 4.325 6.45 9.946 6.475 16.084 0 4.87-1.528 9.376-4.144 13.2h-4.584z"/><path id="D" d="M87.542 35.417l.906 1.062c-2.694 4.144-4.248 9.013-4.273 14.193 0 5.128.777 9.92 3.42 14.064H85.2c-2.616-3.833-4.144-8.366-4.144-13.2.026-6.164 2.46-11.784 6.475-16.1l.001-.01z"/><path id="E" d="M87.542 35.417a4.51 4.51 0 0 1 .311.363c-3.03 4.48-4.766 9.738-4.8 15.385 0 4.895 1.32 9.505 3.626 13.572H85.2c-2.616-3.833-4.144-8.366-4.144-13.2.026-6.164 2.46-11.784 6.475-16.1l.001-.01z"/><path id="F" d="M94.406 51.5c0-6.138-2.435-11.733-6.475-16.084a17.8 17.8 0 0 0-.906 1.062c2.694 4.144 4.248 9.013 4.273 14.193 0 5.128-1.502 9.92-4.144 14.064h3.108c2.616-3.86 4.144-8.392 4.144-13.235z"/><path id="G" d="M94.406 51.5c0-6.138-2.435-11.733-6.475-16.084a4.51 4.51 0 0 0-.311.363c3.03 4.48 4.766 9.738 4.8 15.385 0 4.895-1.32 9.505-3.626 13.572h1.476c2.616-3.86 4.144-8.392 4.144-13.235h.002z"/><path id="H" d="M87.93 35.417l-.906 1.062c2.694 4.144 4.248 9.013 4.273 14.193 0 5.128-1.502 9.92-4.144 14.064h3.108c2.616-3.833 4.144-8.366 4.144-13.2-.026-6.164-2.46-11.784-6.475-16.1v-.01z"/><path id="I" d="M87.93 35.417a4.51 4.51 0 0 0-.311.363c3.03 4.48 4.766 9.738 4.8 15.385 0 4.895-1.32 9.505-3.626 13.572h1.476c2.616-3.833 4.144-8.366 4.144-13.2-.026-6.164-2.46-11.784-6.475-16.1l.002-.01z"/><path id="J" d="M90.883 40.08a26.098 26.098 0 0 0-3.42-4.688 25.418 25.418 0 0 0-3.42 4.688h6.84z"/><path id="K" d="M119.32 84.705s-3.134.673-7.64 5.18c-1.632 1.632-4.196 4.947-6.087 7.46-.777 1.036-2.435.518-2.46-.777l-.622-27.583c-.13-.777.078-1.58.57-2.176l6.786-8.443 9.453 26.34z"/><path id="L" d="M157.86 57.225l8.443 3.3V44.483l-25.926-20.228v30.33l6.268 3.3a13.52 13.52 0 0 1 11.215-.648v-.002z"/><path id="M" d="M135.43 84.705s3.134.673 7.64 5.18c1.632 1.632 4.196 4.947 6.087 7.46.777 1.036 2.435.518 2.46-.777l.622-27.583a2.727 2.727 0 0 0-.57-2.176l-6.786-8.443-9.453 26.34z"/><path id="N" d="M135.302 99.52c.285-3.082-.13-5.983-5.3-13.623-.855-1.217-2.9-1.217-3.755 0-5.18 7.666-5.594 10.567-5.3 13.623.052.388.75.83 1.2.673 2.978-1.528 9.013-1.528 11.992 0 .44.155 1.14-.26 1.2-.673h-.007z"/><path id="O" d="M133.955 90.222c12.2-19.97 16.628-39.575 13.882-55.918-2.383-14.193-10.05-24.424-19.736-30.82-9.687 6.397-17.353 16.628-19.736 30.82-2.745 16.343 1.7 35.95 13.882 55.918h11.708z"/><path id="P" d="M118.156 12.418a30.513 30.513 0 0 1 19.97.026c-2.927-3.548-6.32-6.527-9.997-8.96-3.678 2.435-7.07 5.413-9.97 8.936l-.003-.002z"/><path id="Q" d="M128.1 102.343c.285 0 .518-.3.544-.725l1.942-31.702c.207-3.263-.83-6.294-2.357-7.02-.104-.052-.207-.052-.285 0-1.528.7-2.564 3.73-2.357 7.02l1.942 31.702c.052.414.3.725.57.725h.001z"/></defs></svg>