<svg xmlns="http://www.w3.org/2000/svg" xmlns:xlink="http://www.w3.org/1999/xlink" width="384" height="417"><style>.B{stroke-width:6}.C{stroke-linejoin:round}.D{stroke:#212552}.E{fill:#92d6e9}.F{stroke:#0a1e2b}.G{fill:#0a1e2b}.H{opacity:.23}.I{stroke-linecap:round}.J{fill:#cbedf9}.K{fill:#ffe07d}.L{fill:#212552}.M{fill:#ffe8a6}</style><g fill="none" fill-rule="evenodd"><ellipse cx="183" cy="393.5" rx="182.6" ry="22.8" class="L"/><use xlink:href="#B" class="E"/><path d="M136.5 364h-66a6.02 6.02 0 0 0-6 6v20.4h65l13-13V370a6.02 6.02 0 0 0-6-6z" opacity=".3" class="B C F G"/><use xlink:href="#C" class="E"/><g class="B C"><path d="M295.5 364h-66a6.02 6.02 0 0 0-6 6v7.4l13 13h65V370a6.02 6.02 0 0 0-6-6z" opacity=".3" class="F G"/><g class="D"><use xlink:href="#B"/><use xlink:href="#C"/></g></g><use xlink:href="#D" class="J"/><path d="M313 37.5H53c-22.1 0-40 17.9-40 40v23c0-22.1 17.9-40 40-40h260c22.1 0 40 17.9 40 40v-23c0-22.1-17.9-40-40-40z" fill="#e8f9ff"/><path d="M313 354.5H53c-22.1 0-40-17.9-40-40v23c0 22.1 17.9 40 40 40h260c22.1 0 40-17.9 40-40v-23c0 22.1-17.9 40-40 40z" class="E"/><path d="M51.7 336.6l36.4 40.9h68l43.9-.3-8.7-65.1z" class="B C F G H"/><path d="M65 341.5c-8.8 0-16-7.2-16-16v-236c0-8.8 7.2-16 16-16h236c8.8 0 16 7.2 16 16v236c0 8.8-7.2 16-16 16H65z" class="E"/><g class="B C"><path d="M317 89.5v236c0 8.8-7.2 16-16 16H65c-8.8 0-16-7.2-16-16v-236c0-8.8 7.2-16 16-16h127.4c4.5 2.1 7.6 6.8 7.6 11.9v10.3h82.6c2.6 0 5 1.1 6.7 2.8L310 76.3c4.2 2.8 7 7.7 7 13.2z" class="D"/><path d="M273.9 299.9l54.6 30.6 11-34.2-29.5-20.2z" class="F G H"/></g><use xlink:href="#E" fill="#53adbc"/><g class="B C D"><use xlink:href="#E"/><path d="M289.3 98.4c1.7 1.7 2.8 4.1 2.8 6.7V304c0 5.8-4.7 10.4-10.4 10.4H200" class="I"/><use xlink:href="#F" fill="#5f9e71"/><use xlink:href="#F"/></g><path d="M332.3 268.4l-4.7-12.1c-2.8 1.1-5.9-.3-7-3.1s.3-5.9 3.1-7l-4.7-12.1c-.6-1.4-2.2-2.2-3.6-1.6L280 246.2l-.8.3-35.4 13.7c-1.4.6-2.2 2.2-1.6 3.6l4.7 12.1c2.8-1.1 5.9.3 7 3.1s-.3 5.9-3.1 7l4.7 12.1c.6 1.4 2.2 2.2 3.6 1.6l71.6-27.7c1.4-.5 2.1-2.1 1.6-3.6z" fill="#90c49e"/><ellipse fill="#fff" transform="rotate(-21.137 294.718 264.792)" cx="286.678" cy="263.292" rx="12.7" ry="13.3"/><path d="M264.9 276.1l35.5-47.6L299 182z" class="B C F G H"/><path fill="#a78b75" d="M242.8 280h-15.9l6.2 22.4 2.9 7.5z"/><use xlink:href="#G" class="K"/><path d="M230.5 303.6l-4.9-19.6c-.8-3.4-4.9-5.9-9.1-5.9H194c-4.2 0-8.2 2.5-9.1 5.9l-.1.5c.9-.2 1.8-.3 2.7-.3H210c4.2 0 8.2 2.5 9.1 5.9l4.9 19.6c.4 1.6.4 3.2 0 4.6 4.9-1 7.7-5.6 6.5-10.7z" class="M"/><use xlink:href="#G" class="B C D"/><use xlink:href="#H" class="K"/><g class="B C D"><use xlink:href="#H"/><use xlink:href="#I" fill="#5f9e71"/></g><path d="M285.7 186.9l-12.1-4.5c-1 2.8-4.2 4.2-7 3.2s-4.2-4.2-3.2-7l-12.1-4.5c-1.5-.5-3.1.2-3.6 1.6l-26.9 72c-.5 1.5.2 3.1 1.6 3.6l12.1 4.5c1-2.8 4.2-4.2 7-3.2s4.2 4.2 3.2 7l12.1 4.5c1.5.5 3.1-.2 3.6-1.6l26.9-72c.6-1.4-.1-3-1.6-3.6z" fill="#90c49e"/><ellipse fill="#fff" transform="rotate(-69.532 256.009 217.946)" cx="253.848" cy="216.446" rx="12.7" ry="13.3"/><use xlink:href="#I" class="B C D"/><path fill="#a78b75" d="M220.8 244.6l-19.5-.9 5.7 19.8 7 11z"/><use xlink:href="#J" class="K"/><path d="M259.4 267.2l-4.9-19.6c-.8-3.4-4.9-5.9-9.1-5.9H223c-4.2 0-8.2 2.5-9.1 5.9l-.3 1.2c1.2-.4 2.4-.7 3.7-.7h22.5c4.2 0 8.2 2.5 9.1 5.9l4.9 19.6c.3 1.4.4 2.7.2 4 4.3-1.4 6.6-5.7 5.4-10.4z" class="M"/><use xlink:href="#J" class="B C D"/><use xlink:href="#K" class="K"/><path d="M233.7 230.8l-4.9-19.6c-.8-3.4-4.9-5.9-9.1-5.9h-22.5c-4.2 0-8.2 2.5-9.1 5.9v.2c1-.3 2.1-.5 3.2-.5h22.5c4.2 0 8.2 2.5 9.1 5.9l4.9 19.6c.4 1.7.4 3.4-.1 4.9 4.7-1.2 7.2-5.6 6-10.5z" class="M"/><g class="B C"><use xlink:href="#K" class="D"/><path d="M301 73.5H138.8l4.7 145.6h87.9L299 182l18-66.8V89.5c0-8.9-7.2-16-16-16z" class="F G H"/></g><use xlink:href="#L" class="K"/><path d="M286.4 303.6l-4.9-19.6c-.8-3.4-4.9-5.9-9.1-5.9H250c-4.2 0-8.2 2.5-9.1 5.9l-.4 1.7a10.3 10.3 0 0 1 3.5-.6h22.5c4.2 0 8.2 2.5 9.1 5.9l4.9 19.6c.3 1.2.4 2.4.2 3.5 4.5-1.3 6.9-5.7 5.7-10.5z" class="M"/><use xlink:href="#L" class="B C D"/><use xlink:href="#M" class="E"/><use xlink:href="#M" class="B C D"/><use xlink:href="#N" class="J"/><path d="M141 346.9L60.2 328c-6.2-1.5-11.1-9.8-11.1-18.6v16c0 8.8 4.9 17.2 11.1 18.6l80.8 18.9c8.2 1.9 15.1-5 15.1-15.5v-16c0 10.6-6.9 17.5-15.1 15.5z" class="E"/><path d="M141 52L60.2 70.9c-6.2 1.5-11.1 9.8-11.1 18.6v12c0-8.8 4.9-17.2 11.1-18.6L141 64c8.2-1.9 15.1 5 15.1 15.5v-12c0-10.5-6.9-17.4-15.1-15.5z" fill="#e8f9ff"/><ellipse cx="143.5" cy="125.8" rx="4.7" ry="10.6" class="L"/><g class="B C"><use xlink:href="#N" class="D"/><g stroke="#9fbdca" fill="#9fbdca"><ellipse cx="98.6" cy="214.6" rx="27.9" ry="54.6"/><ellipse cx="97.6" cy="266.3" rx="8.6" ry="7.8"/></g></g><ellipse cx="99.8" cy="208" rx="29.8" ry="55.5" class="J"/><ellipse cx="97.6" cy="208" rx="23.4" ry="46" class="E"/><g class="B C"><path d="M71.7 208l43.8 1.7-13 53.6-14.4-4.2L70 208" class="F G H I"/><ellipse cx="99.8" cy="208" rx="29.8" ry="55.5" class="D"/><g class="F G"><use xlink:href="#O" class="H"/><use xlink:href="#O" y="130.5" class="H"/></g></g><g class="E"><use xlink:href="#O" y="-8"/><use xlink:href="#O" y="123"/></g><g class="B C D"><use xlink:href="#O" y="-8"/><use xlink:href="#O" y="123"/></g><path d="M381 55.3l-20.2-2.8m-27.9-28.9l-3-20.2m23 27.5l14.5-14.5" class="B C D I"/><path d="M94.4 187.5H78.7v41.1h15.7c6.9 0 12.4-9.2 12.4-20.5s-5.6-20.6-12.4-20.6z" fill="#3ca4b5"/><g class="C D"><path d="M94.4 187.5H78.7v41.1h15.7c6.9 0 12.4-9.2 12.4-20.5s-5.6-20.6-12.4-20.6z" class="B"/><ellipse stroke-width="10" cx="94.4" cy="208" rx="12.4" ry="20.5"/><g class="I"><path d="M114 208H93.5" stroke-width="9"/><path d="M81.9 187.5h12.5v-16.1l-12.5 16.1" class="B"/></g></g><path d="M81.9 187.5h12.5v-16.1l-12.5 16.1m0 41h12.5v16.1l-12.5-16.1" class="L"/><path d="M81.9 228.5h12.5v16.1l-12.5-16.1" class="B C D I"/><ellipse fill="#ffea9e" cx="78.7" cy="208" rx="12.4" ry="20.5"/><ellipse cx="77.7" cy="208" rx="6.1" ry="10" class="K"/><ellipse cx="78.7" cy="208" rx="12.4" ry="20.5" class="B C D"/><path d="M188.3 342.6l-20.3 2V70.3l20.3 2c6.5.6 11.7 6.5 11.7 13v244.2c0 6.6-5.2 12.5-11.7 13.1z" class="J"/><g class="B C"><path d="M200.6 174.6V146h-22.3v30.3h.1c0 6.2 5 11.2 11.2 11.2s11.2-5 11.2-11.2c0-.6-.1-1.1-.2-1.7z" class="F G H"/><g class="D"><path d="M200 85.3v244.2c0 5.1-3.1 9.8-7.4 11.9a10.82 10.82 0 0 1-4 1.1l-19.6 2V70.3l19.6 2c1.4.1 2.7.5 4 1.1 4.3 2.2 7.4 6.8 7.4 11.9z"/><path d="M288.3 312.1l24.2 24.5" class="I"/></g></g><use xlink:href="#P" class="E"/><use xlink:href="#P" class="B C D"/><circle cx="200.8" cy="144" r="11.2" class="J"/><g class="B C"><g class="D"><circle cx="200.8" cy="144" r="11.2"/><circle cx="200.8" cy="144" r="11.2"/></g><path d="M200.6 302.3v-28.6h-22.3V304h.1c0 6.2 5 11.2 11.2 11.2s11.2-5 11.2-11.2c0-.6-.1-1.2-.2-1.7z" class="F G H"/></g><use xlink:href="#P" y="127.7" class="E"/><use xlink:href="#P" y="127.7" class="B C D"/><circle cx="200.8" cy="271.6" r="11.2" class="J"/><circle cx="200.8" cy="271.6" r="11.2" class="B C D"/><use xlink:href="#Q" class="E"/><ellipse cx="143.5" cy="284.1" rx="4.7" ry="10.6" class="L"/><g class="B C D"><use xlink:href="#Q"/><use xlink:href="#D"/></g><g class="I C"><path d="M142.5 134.5l1 177.6" stroke-width="8" class="F H"/><path d="M141.6 51.7l15.5-.5m-14.1 312l14.3.4" class="B D"/></g></g><defs><path id="B" d="M142.5 377.4V370a6.02 6.02 0 0 0-6-6h-66a6.02 6.02 0 0 0-6 6v22a6.02 6.02 0 0 0 6 6h43.9a18.09 18.09 0 0 0 12.8-5.3l15.3-15.3z"/><path id="C" d="M223.5 377.4V370a6.02 6.02 0 0 1 6-6h66a6.02 6.02 0 0 1 6 6v22a6.02 6.02 0 0 1-6 6h-43.9a18.09 18.09 0 0 1-12.8-5.3l-15.3-15.3z"/><path id="D" d="M313 377.5H53c-22.1 0-40-17.9-40-40v-260c0-22.1 17.9-40 40-40h260c22.1 0 40 17.9 40 40v260c0 22.1-17.9 40-40 40z"/><path id="E" d="M310 76.3l-20.7 22.2c-1.7-1.7-4.1-2.8-6.7-2.8H200V85.4c0-5.1-3.2-9.8-7.6-11.9H301c3.3 0 6.5 1 9 2.8z"/><path id="F" d="M345 270.7l-18.1-46.9c-1-2.7-4.1-4-6.8-3L275.8 238l-44.3 17.1c-2.7 1-4 4.1-3 6.8l18.1 46.9c1 2.7 4.1 4 6.8 3l88.6-34.2c2.7-1.2 4.1-4.2 3-6.9z"/><path id="G" d="M221.9 314.5h-33.3c-6.2 0-10-5.1-8.5-10.9L185 284c.8-3.4 4.9-5.9 9.1-5.9h22.5c4.2 0 8.2 2.5 9.1 5.9l4.9 19.6c1.3 5.7-2.5 10.9-8.7 10.9z"/><path id="H" d="M196.4 278.1h-33.3c-6.2 0-10-5.1-8.5-10.9l4.9-19.6c.8-3.4 4.9-5.9 9.1-5.9H191c4.2 0 8.2 2.5 9.1 5.9l4.9 19.6c1.4 5.7-2.4 10.9-8.6 10.9z"/><path id="I" d="M295.9 178.9l-47.1-17.6c-2.7-1-5.7.4-6.7 3.1l-33.2 89c-1 2.7.4 5.7 3.1 6.7l47.1 17.6c2.7 1 5.7-.4 6.7-3.1l33.2-89c1-2.7-.4-5.7-3.1-6.7z"/><path id="J" d="M250.9 278.1h-33.3c-6.2 0-10-5.1-8.5-10.9l4.9-19.6c.8-3.4 4.9-5.9 9.1-5.9h22.5c4.2 0 8.2 2.5 9.1 5.9l4.9 19.6c1.3 5.7-2.5 10.9-8.7 10.9z"/><path id="K" d="M225.2 241.7h-33.3c-6.2 0-10-5.1-8.5-10.9l4.9-19.6c.8-3.4 4.9-5.9 9.1-5.9h22.5c4.2 0 8.2 2.5 9.1 5.9l4.9 19.6c1.2 5.7-2.5 10.9-8.7 10.9z"/><path id="L" d="M277.9 314.5h-33.3c-6.2 0-10-5.1-8.5-10.9L241 284c.8-3.4 4.9-5.9 9.1-5.9h22.5c4.2 0 8.2 2.5 9.1 5.9l4.9 19.6c1.3 5.7-2.5 10.9-8.7 10.9z"/><path id="M" d="M61.9 328.5V86.3c0-9.1 5.1-17.4 11.4-18.7l80.9-16.2c8.1-1.6 14.7 5.6 14.7 16v280c0 10.5-6.7 17.6-14.7 16l-80.9-16.2c-6.3-1.2-11.4-9.6-11.4-18.7z"/><path id="N" d="M49 325.5v-236c0-8.8 4.9-17.2 11.1-18.6L141 52c8.2-1.9 15.1 5 15.1 15.5v280c0 10.5-6.8 17.4-15.1 15.5l-80.8-18.9c-6.3-1.5-11.2-9.8-11.2-18.6z"/><path id="O" d="M49 170c-4.4 0-8-3.6-8-8v-24c0-4.4 3.6-8 8-8s8 3.6 8 8v24c0 4.4-3.6 8-8 8z"/><path id="P" d="M189.9 132.8c-6.2 0-11.2 5-11.2 11.2s5 11.2 11.2 11.2h10.9v-22.3h-10.9v-.1z"/><path id="Q" d="M134 280.3c-2.2 0-4-1.8-4-4v-142c0-2.2 1.8-4 4-4h8.2v-9H133a12.04 12.04 0 0 0-12 12v144a12.04 12.04 0 0 0 12 12h9.2v-9H134z"/></defs></svg>