<svg xmlns="http://www.w3.org/2000/svg" xmlns:xlink="http://www.w3.org/1999/xlink" width="658" height="478"><style>.Q{stroke-linejoin:round}.R{stroke:#34323a}.S{stroke-width:6}.T{fill:#fecb5b}.U{stroke-linecap:round}.V{stroke-width:12}.W{stroke-width:8}.X{fill:#fff}.Y{stroke-width:2}.Z{fill:#eef2fa}.a{fill:#f7b45c}.b{stroke:#ff6f6c}.c{stroke-width:3.638}.d{fill:#dba44a}.e{fill:#ef4c4e}.f{fill:#ea952f}</style><g fill="none" fill-rule="evenodd"><path d="M616.465 304.5h10.714m-5.357-5.357v10.714m-299.197-269.9h10.714m-5.357-5.357v10.714" opacity=".4" stroke="#9284ce" class="Q S U"/><g class="Q b c"><circle cx="493.161" cy="109.679" r="7.768"/><circle cx="6.018" cy="209.589" r="3.393"/></g><g stroke="#ffa65c" class="Q"><circle cx="590.571" cy="104.411" r="6.518" class="S"/><circle stroke-width="4" opacity=".45" cx="53.339" cy="386.107" r="6.518"/></g><g class="Q U"><path d="M257.536 6.554h8.214m-4.107-4.108v8.214" class="b c"/><path d="M144.4 274.32h19.732m-9.812-9.9v19.82" opacity=".24" stroke-width="9.326" class="R"/><path d="M590.57 229.858v3.125m0 8.927v3.125m7.6-7.588h-3.036m-9.017 0h-3.125m13.036-5.347l-2.232 2.232m-6.34 6.328l-2.232 2.143m10.803.001l-2.232-2.143m-6.34-6.34l-2.232-2.232" stroke="#ffa64d" stroke-width="3"/></g><path d="M450.125 6.553v7.68m0 21.874v7.6m18.57-18.572h-7.6m-21.874 0h-7.68M463.25 12l-5.357 5.446m-15.536 15.446L437 38.25m26.25 0l-5.357-5.357m-15.536-15.447L437 12" opacity=".57" stroke="#e24d59" stroke-linecap="square" stroke-width="4"/><g class="Q U"><path d="M72.893 205.84v5.536m0 15.714v5.536m13.393-13.394H80.84m-15.804 0H59.5m22.857-9.465l-3.84 3.93m-11.16 11.16l-3.93 3.84m18.93 0l-3.84-3.84m-11.16-11.16l-3.93-3.93" class="b c"/><path d="M176.285 54.768V59.5m0 13.483v4.643m11.43-11.43h-4.732m-13.482 0h-4.643m19.463-8.035l-3.304 3.304m-9.552 9.554l-3.304 3.304m16.16-.002l-3.304-3.304m-9.552-9.553l-3.304-3.304" stroke="#ae8dce" stroke-width="3.105"/><path d="M42.625 471.107H652" class="R V"/></g><use xlink:href="#A" class="d"/><path d="M106.197 371.732c11.786-7.143 50.268 7.143 58.036 10.1v-5.804s-46.25-18.66-59.375-10.625c-9.286 5.714-14.9 14.554-10.625 21.16.714-5.268 5.446-10.893 11.964-14.82z" class="T"/><use xlink:href="#A" class="Q R W"/><use xlink:href="#B" class="d"/><path d="M258.518 370.84c5.982 3.66 10.357 8.57 11.696 13.393 1.964-6.25-3.393-13.84-11.696-18.93-13.125-8.036-59.375 10.625-59.375 10.625v5.536c0 .1 46.34-18.57 59.375-10.625z" class="T"/><use xlink:href="#B" class="Q R W"/><use xlink:href="#C" class="d"/><path d="M167.893 376.465a62.02 62.02 0 0 1 26.875 0c4.82 1.34 8.75 6.07 10.18 10.714.357-1.16.536-2.41.536-3.482 0-5.536-4.643-12.59-10.714-14.196a62.02 62.02 0 0 0-26.875 0c-6.07 1.696-10.714 8.66-10.714 14.196 0 1.16.18 2.32.536 3.482 1.518-4.643 5.446-9.375 10.18-10.714z" class="T"/><use xlink:href="#C" class="Q R W"/><path d="M85.93 394.6h159.196v76.07H85.93z" class="T"/><path d="M245.125 411.643l-59.107 59.018H207l38.125-38.125zm-4.732-17.053h-19.286l-76.16 76.07h20.982l75.268-75.268zm-60.357 0l-76.16 76.07h20.982l76.07-76.07zm-20.178 0h-20.893L85.93 447.535v15.982l2.5 2.5zm-61.965 0L85.93 406.464v20.982l32.857-32.857z" class="e"/><path fill="#f4e598" opacity=".46" d="M85.93 394.6h159.196v10.982H85.93z"/><path opacity=".2" d="M85.93 394.6h13.84v76.07H85.93zm129.642 0h13.84v76.07h-13.84z" fill="#4c1c1f"/><path d="M85.93 394.6h159.196v76.07H85.93z" class="Q R V"/><use xlink:href="#D" class="X"/><use xlink:href="#D" class="Q R S"/><use xlink:href="#E" class="X"/><use xlink:href="#E" class="Q R S"/><use xlink:href="#F" class="Z"/><use xlink:href="#F" class="Q R S"/><use xlink:href="#G" class="Z"/><g class="Q R"><use xlink:href="#G" class="S"/><path d="M473.875 213.16s0-4.375-9.196-6.07m10.1 10.446s-9.9-7.6-25.714-7.143" class="U Y"/></g><use xlink:href="#H" fill="#6fbb57"/><g fill="#579b3e"><path d="M228.34 149.054h156.875v14.9H228.34zm0 149.464h156.875v14.9H228.34z"/><path d="M306.553 149.054h21.607V470.66h-21.607zm59.643 321.606H344.6V360.93a11.4 11.4 0 0 1 11.43-11.43h10.18v121.16zm-137.32-321.606h10.804V470.66h-10.804z"/></g><use xlink:href="#H" class="Q R V"/><g fill="#6fbb57"><use xlink:href="#I"/><use xlink:href="#J"/><use xlink:href="#K"/><path d="M293.696 109.768h40.446v39.286h-40.446z"/></g><g fill="#579b3e"><use xlink:href="#L"/><path d="M219.4 109.768h8.93v39.286h-8.93z"/></g><use xlink:href="#L" y="-28.572" opacity=".42" class="X"/><path d="M293.43 149.054h26.786V470.66H293.43z" class="T"/><g class="Q R"><path d="M293.43 149.054h26.786V470.66H293.43z" class="W"/><use xlink:href="#I" class="V"/></g><path d="M286.554 109.768H327v39.286h-40.446z" class="T"/><use xlink:href="#M" opacity=".63" class="f"/><path d="M286.554 109.768H327v39.286h-40.446z" class="Q R W"/><use xlink:href="#J" y="-8.037" class="a"/><path d="M333.25 107.625v-7.4c0-8.57-4.107-16.16-10.357-20.982-7.5 7.5-11.43 14.9-11.43 14.9l8.75 19.196 11.786 2.6c.804-2.68 1.25-5.446 1.25-8.304z" opacity=".63" class="f"/><path d="M355.036 69.678c8.482-.804 14.196 7.6 17.5 17.857-2.857-12.768-9.018-24.82-19.107-23.93-27.054 2.4-41.964 30.536-41.964 30.536l2.232 5c3.036-5.18 17.5-27.32 41.34-29.464z" class="T"/><g class="Q R"><use xlink:href="#J" y="-8.037" class="W"/><path d="M322.982 97.446s10.446-9.286 22.4-11.07M324.4 97s13.214-4.643 24.9-1.964" class="U Y"/></g><use xlink:href="#K" y="-8.037" class="a"/><path d="M280.304 100.214v7.4a26.26 26.26 0 0 0 1.071 7.5l7.857-1.696 8.75-19.196s-3.304-6.16-9.554-12.946c-5 4.643-8.125 11.43-8.125 18.93z" opacity=".63" class="f"/><path d="M254.947 70.57c22.68 2.054 36.875 22.143 40.804 28.57l2.232-5s-14.9-28.125-41.964-30.536c-12.32-1.07-18.75 17.143-20.536 32.4 2.68-13.304 8.93-26.43 19.464-25.446z" class="T"/><g class="Q R"><use xlink:href="#K" y="-8.037" class="W"/><path d="M265.304 96.82s13.93-1.607 24.732 3.75M268.25 87s13.57 3.214 22.054 11.875" class="U Y"/></g><path fill="#fc6" d="M228.34 279.232h156.875v26.786H228.34z"/><path opacity=".6" d="M228.34 279.232h11.25v26.786h-11.25z" class="a"/><path d="M228.34 279.232h156.875v26.786H228.34z" class="Q R W"/><use xlink:href="#M" y="-8.036" class="a"/><path d="M306.82 79.946c-11.16 0-20.268 9.018-20.268 20.268v5.893c0-11.16 9.018-20.268 20.268-20.268 11.16 0 20.268 9.018 20.268 20.268v-5.893c-.1-11.16-9.107-20.268-20.268-20.268z" class="T"/><g class="Q R"><use xlink:href="#M" y="-8.036" class="W"/><path d="M301.554 425.125v45.536m9.196-318.75v16.43m-3.93-16.43v8.214M312 448.607v22.054m-83.66-182.143h11.34m128.57 7.946h19.9m-32.767-7.054H384.5" class="U Y"/></g><use xlink:href="#N" fill="#6b9ec0"/><path d="M561.554 353.16h-206.07v116.607h14.82v-96.43c0-4.018 3.304-7.32 7.32-7.32h183.93c2.946 0 5.357-2.4 5.357-5.357v-2.143c0-2.946-2.4-5.357-5.357-5.357z" fill="#5187a5"/><g opacity=".62" class="X"><circle cx="370.303" cy="359.232" r="7.679"/><circle cx="400.571" cy="359.232" r="7.679"/><circle cx="430.839" cy="359.232" r="7.679"/><circle cx="461.196" cy="359.232" r="7.679"/><circle cx="491.464" cy="359.232" r="7.679"/><circle cx="521.821" cy="359.232" r="7.679"/><circle cx="552.089" cy="359.232" r="7.679"/><circle cx="385.393" cy="380.572" r="7.679"/><circle cx="415.75" cy="380.572" r="7.679"/><circle cx="446.018" cy="380.572" r="7.679"/><circle cx="476.286" cy="380.572" r="7.679"/><circle cx="506.643" cy="380.572" r="7.679"/><circle cx="536.911" cy="380.572" r="7.679"/><circle cx="370.303" cy="402.268" r="7.679"/><circle cx="400.571" cy="402.268" r="7.679"/><circle cx="430.839" cy="402.268" r="7.679"/><circle cx="461.196" cy="402.268" r="7.679"/><circle cx="491.464" cy="402.268" r="7.679"/><circle cx="521.821" cy="402.268" r="7.679"/><circle cx="552.089" cy="402.268" r="7.679"/><circle cx="385.393" cy="423.607" r="7.679"/><circle cx="415.75" cy="423.607" r="7.679"/><circle cx="446.018" cy="423.607" r="7.679"/><circle cx="476.286" cy="423.607" r="7.679"/><circle cx="506.643" cy="423.607" r="7.679"/><circle cx="536.911" cy="423.607" r="7.679"/><circle cx="370.303" cy="444.232" r="7.679"/><circle cx="400.571" cy="444.232" r="7.679"/><circle cx="430.839" cy="444.232" r="7.679"/><circle cx="461.196" cy="444.232" r="7.679"/><circle cx="491.464" cy="444.232" r="7.679"/><circle cx="521.821" cy="444.232" r="7.679"/><circle cx="552.089" cy="444.232" r="7.679"/><circle cx="385.393" cy="465.482" r="7.679"/><circle cx="415.75" cy="465.482" r="7.679"/><circle cx="446.018" cy="465.482" r="7.679"/><circle cx="476.286" cy="465.482" r="7.679"/><circle cx="506.643" cy="465.482" r="7.679"/><circle cx="536.911" cy="465.482" r="7.679"/></g><use xlink:href="#N" class="Q R V"/><use xlink:href="#P" class="e"/><g fill="#dd3a43"><path d="M488.607 224.6H499.5v126.964h-10.893z"/><path d="M421.196 224.6h128.75v7.143h-128.75zm0 73.035h128.75v7.143h-128.75z"/><path d="M421.196 228.16h7.232v123.393h-7.232z"/></g><use xlink:href="#Q" class="Z"/><use xlink:href="#Q" class="Q R S"/><use xlink:href="#R" class="Z"/><g class="Q R"><use xlink:href="#R" class="S"/><use xlink:href="#P" class="V"/></g><use xlink:href="#O" class="X"/><g class="Q R"><use xlink:href="#O" class="S"/><path d="M494.054 325.304v28.75m5.1-14.374v14.375m29.464-64.02h21.786m-117.6-1.518h13.214m48.928-75.358s1.964-3.75 9.018-7.5m-9.9 11.876s11.43-7.946 22.946-8.125" class="U Y"/><path d="M634.02 388.842l9.936 5.647-9.088 16-9.936-5.647z" class="V"/></g><circle cx="613.697" cy="436.197" r="33.75" class="e"/><path d="M588.875 428.25c9.196-16.25 29.82-21.875 46.07-12.68a33.83 33.83 0 0 1 10.714 9.643c-2.6-7.5-7.768-14.196-15.268-18.393-16.25-9.196-36.875-3.57-46.07 12.68-6.696 11.875-5.536 26.07 1.964 36.43-3.036-8.84-2.4-18.93 2.6-27.68z" fill="#ff8d93"/><g class="Q R V"><circle cx="613.697" cy="436.197" r="33.75"/><path d="M626.9 384.857l23.304 13.214" class="U"/></g><g class="X"><ellipse transform="rotate(330.928 1065.878 -889.585)" cx="35.269" cy="36.178" rx="6.518" ry="4.107"/><ellipse transform="rotate(299.611 643.664 -264.038)" cx="23.743" cy="41.99" rx="2.5" ry="2.232"/></g><circle cx="597.714" cy="425.839" r="6.518" class="T"/><circle cx="597.714" cy="425.839" r="6.518" class="Q R S"/><circle cx="611.107" cy="440.929" r="6.518" class="T"/><circle cx="611.107" cy="440.929" r="6.518" class="Q R S"/><circle cx="630.036" cy="445.928" r="6.518" class="T"/><g class="Q R"><circle cx="630.036" cy="445.928" r="6.518" class="S"/><ellipse cx="638.786" cy="391.554" rx="4.911" ry="4.018" class="V"/></g></g><defs><path id="A" d="M104.768 365.393c-13.125 8.036-18.93 22.4 0 27.68l59.375-.893v-16.16s-46.25-18.66-59.375-10.625z"/><path id="B" d="M258.518 365.393c13.125 8.036 18.93 22.4 0 27.68l-59.375-.893v-16.16s46.34-18.66 59.375-10.625z"/><path id="C" d="M194.857 397.983a62.02 62.02 0 0 1-26.875 0c-6.07-1.696-10.714-8.66-10.714-14.196s4.643-12.6 10.714-14.196a62.02 62.02 0 0 1 26.875 0c6.07 1.696 10.714 8.66 10.714 14.196-.1 5.446-4.732 12.5-10.714 14.196z"/><path id="D" d="M439.054 174.946s2.32 9.018-10.625 16.964c28.125 5.804 45.625 19.375 48.482 22.6h5.536s-7.5-35.982-43.393-39.554z"/><path id="E" d="M537.18 180.66s-3.57 8.57 8.125 18.304c-28.66 1.786-47.946 12.68-51.16 15.536l-5.536-.804s12.5-34.554 48.57-33.036z"/><path id="F" d="M488.607 209.68s8.214-18.304 26.07-18.304c17.054.714 28.75 28.036 15 30.268-13.84 2.232-37.4 2.946-37.4 2.946s3.393-7.857-3.66-14.9z"/><path id="G" d="M479.232 209.68s-8.214-18.304-26.07-18.304c-17.054.714-28.75 28.036-15 30.268 13.84 2.232 37.4 2.946 37.4 2.946s-3.393-7.857 3.66-14.9z"/><path id="H" d="M379.857 470.66h-146.16a5.366 5.366 0 0 1-5.357-5.357v-316.25h156.875v316.25c0 3.036-2.4 5.357-5.357 5.357z"/><path id="I" d="M390.75 109.768H222.893a5.366 5.366 0 0 0-5.357 5.357v28.57c0 2.946 2.4 5.357 5.357 5.357H390.75c2.946 0 5.357-2.4 5.357-5.357v-28.57c0-2.946-2.4-5.357-5.357-5.357z"/><path id="J" d="M311.465 102.18s14.9-28.125 41.964-30.536c19.9-1.786 24.375 46.607 19.018 52.054-8.57 8.57-23.75 3.75-52.232-2.32l-8.75-19.196z"/><path id="K" d="M297.982 102.18s-14.9-28.125-41.964-30.536c-19.9-1.786-24.375 46.607-19.018 52.054 8.57 8.57 23.75 3.75 52.232-2.32l8.75-19.196z"/><path id="L" d="M390.75 138.34H222.893c-2.946 0-5.357 2.4-5.357 5.357s2.4 5.357 5.357 5.357H390.75c2.946 0 5.357-2.4 5.357-5.357s-2.4-5.357-5.357-5.357z"/><path id="M" d="M306.82 135.84c-11.16 0-20.268-9.018-20.268-20.268v-7.32c0-11.16 9.018-20.268 20.268-20.268 11.16 0 20.268 9.018 20.268 20.268v7.4c-.1 11.16-9.107 20.18-20.268 20.18z"/><path id="N" d="M561.554 470.66H360.75a5.366 5.366 0 0 1-5.357-5.357V359.4c0-2.946 2.4-5.357 5.357-5.357h200.804c2.946 0 5.357 2.4 5.357 5.357v105.982c0 2.946-2.4 5.268-5.357 5.268z"/><path id="O" d="M470.84 221.107a13.15 13.15 0 0 1 13.125-13.125 13.15 13.15 0 0 1 13.125 13.125h-26.25z"/><path id="P" d="M419.768 223.25h130.714v130.804H419.768z"/><path id="Q" d="M476.196 223.16h17.857v130.804h-17.857z"/><path id="R" d="M549.93 281.047v17.857H419.217v-17.857z"/></defs></svg>